<?xml version="1.0" encoding="utf-8"?>
<!-- Generator: Adobe Illustrator 23.1.0, SVG Export Plug-In . SVG Version: 6.00 Build 0)  -->
<svg version="1.1" xmlns="http://www.w3.org/2000/svg" xmlns:xlink="http://www.w3.org/1999/xlink" x="0px" y="0px"
	 viewBox="0 0 1920 1080" style="enable-background:new 0 0 1920 1080;" xml:space="preserve">
<style type="text/css">
	.st0{fill:#F4E8D8;}
	.st1{fill:#A69989;}
	.st2{fill:#EC5E4D;}
	.st3{opacity:0.5;fill:#913636;}
	.st4{fill:#F7D04C;}
	.st5{fill:none;stroke:#913636;stroke-miterlimit:10;}
	.st6{fill:#913636;}
	.st7{fill:none;stroke:#F7D04C;stroke-miterlimit:10;}
	.st8{fill:#EB5E4D;}
	.st9{fill:#1D2436;}
	.st10{fill:#F6874E;}
	.st11{opacity:0.63;fill:#F6BE4A;}
	.st12{fill:#29ACE4;}
	.st13{fill:none;stroke:#48598B;stroke-width:2;stroke-linecap:round;stroke-linejoin:round;stroke-miterlimit:10;}
	.st14{fill:#866694;}
	.st15{fill:#C93F37;}
	.st16{fill:#102441;}
	.st17{fill:#FEED7F;}
	.st18{fill:#13161F;}
	.st19{fill:#273150;}
	.st20{fill:#48598B;}
	.st21{fill:#CE6D3E;}
	.st22{fill:#FDEB7E;}
	.st23{fill:#F6BE4A;}
	.st24{fill:#3D4C6D;}
	.st25{fill:#AF5531;}
	.st26{fill:#34273A;}
	.st27{fill:none;stroke:#34273A;stroke-linecap:round;stroke-linejoin:round;stroke-miterlimit:10;}
</style>
<g id="bg">
	<path class="st0" d="M563.99,428.82c18.07-2.01,417.76,7.12,417.76,7.12c186.76-27.11,470.19-113.03,486.59-116.31
		c30.12-6.02,127.17,107.37,178.38,134.48c51.21,27.11,225.92,19.08,186.76,82.34c-39.16,63.26-206.85,166.68-285.17,205.84
		c0,0-229.7,75.62-295.97,87.67c-66.27,12.05-49.85,59.34-97.32,83.08c-79.61,39.8-155.35,51.33-407.47,72.79
		C605.97,997.88,275.99,989,320.3,909.88S140.48,883.61,177.88,754.8c28.48-98.11,144.92-128.73,215.21-170.9
		C393.09,583.9,545.92,430.83,563.99,428.82z"/>
	<path class="st0" d="M1242.85,841.84c0,0,96-31.4,191.47-36.4c104.72-5.48-25.32,44.31-129.76,82.29
		c-76.99,28-131.84,75.03-116.31,25.32C1200.12,875.07,1242.85,841.84,1242.85,841.84z"/>
</g>
<g id="shadow">
	<path class="st1" d="M1415.33,420.91c50.21,0,215.32,25.17,215.32,25.17l-171.01,41.29l-149.3-19.2
		C1310.34,468.18,1365.12,420.91,1415.33,420.91z"/>
	<path class="st1" d="M1495.6,526.92l165.68-43.68c0,0,37.24-8.95,48.03-8.7c14.39,0.33,59.91,3.68,95.06,16.23
		c3.88,1.38-171.7,43.68-171.7,43.68L1495.6,526.92z"/>
	<path class="st1" d="M1301.3,648.92c4.52,0,248.52,61.75,225.93,75.31c-22.59,13.56-49.7,45.18-135.56,39.16
		c-85.85-6.02-225.07-57.03-200.32-73.8C1280.22,629.34,1306.45,644.53,1301.3,648.92z"/>
	<path class="st1" d="M425.61,882.31c0,0,37.08-38.77,65.99-51.16c14.77-6.33,115.87-76.55,156.54-82.58
		c25.02-3.71,225.4-20.65,286.15-15.93c37.98,2.95-22.76,12.7-27.3,30.86c-13.05,52.22-87.82,75.96-87.82,75.96l-122.33,18.31
		l-45.18-28.45l-55.61,52.86l-149.54,18.99L425.61,882.31z"/>
	<path class="st1" d="M810.29,873.84c0,0,64.26-12.05,61.25-27.11c-3.01-15.06-50.21-31.13-116.48-10.04
		C688.8,857.77,810.29,873.84,810.29,873.84z"/>
	<path class="st1" d="M422.27,929.66c0,0,89.73-21.31,83.56-37.98C499.66,875.01,346.15,928.88,422.27,929.66z"/>
</g>
<g id="plane">
	<g>
		<path class="st2" d="M718.4,534.86c-11.44,16.69-50.23,20.88-97.5,15.39c-47.27-5.48-67.58-5.85-56.14-22.54
			c2.8-4.08,25.1-14.63,25.1-14.63s29.08-10.71,46.51-15.55c37.67-10.45,80.39-18.01,102.72-14.38
			C807.87,490.24,729.85,518.17,718.4,534.86z"/>
		<path class="st3" d="M718.4,534.86c11.44-16.69,89.47-44.62,20.68-51.7c-22.33-3.63-65.05,3.92-102.72,14.38
			C636.37,497.53,706.96,551.55,718.4,534.86z"/>
	</g>
	<g>
		<g>
			<path class="st4" d="M1133.78,219.8c-15.25-3.25-55.9-35.46-55.9-35.46s-3.76-18.81,7.12-22.55
				c10.88-3.74,99.12-18.38,193.26-14.18c94.14,4.2,147.36,7.06,184.21,12.28c28.87,4.09,69.29,20.7,93.82,40.17
				c21.72,18.61,13.76,28.15,0.29,30.12C1543.11,232.15,1318.03,259.12,1133.78,219.8z"/>
			<path class="st2" d="M1133.78,219.8l-50.1-28.11c0,0-13.56-10.62-2.68-14.35c10.88-3.74,107.23-21.39,201.37-17.2
				c94.14,4.2,150.37,8.77,184.21,12.28c29,3.01,69.29,20.7,93.82,40.17s-12.21,18.14-25.68,20.11
				c-9.09,1.33-108.88,11.18-226.61,6.5C1251.45,236.96,1190.63,231.35,1133.78,219.8z"/>
			<path class="st3" d="M1133.78,219.8c0,0,160.78,14.36,255.21,4.28c74.81-7.98,98.16-48.6,110.21-44.22
				c21.57,7.84,45.46,20.25,61.2,32.74c24.53,19.47-12.21,18.14-25.68,20.11C1521.25,234.68,1307.53,256.34,1133.78,219.8z"/>
			<path class="st5" d="M1410.58,239.99l-36.94-26.87c-2.43-1.62-2.9-3.45,0.02-3.73l80.26-5.05c3.18-0.38,6.12,1.72,6.69,2.09
				l45.18,28.71"/>
			<path class="st5" d="M1166.69,224.89l-23.38-15.75c-1.96-0.93-0.16-1.28,2.01-1.03l69.2,4.1c0.71,0.08,1.39,0.35,1.96,0.78
				l22.14,20.67"/>
		</g>
		<path class="st6" d="M915.72,603.73l62.25,37.15c0,0,237.97-144.59,271.11-156.64c0,0,0.34-9.92,33.22-14.07
			c62.21-5.35,56.27-91.99,66.16-148.56c3.49-19.94,11.49-100.13,9.81-101.8c-2.68-2.68-29.12-25.44-29.12-25.44
			c-37.18-0.25-28.83,1.83-28.83,1.83s-2.05,85.2-20.12,100.27c-18.07,15.06-81.25,14.05-122.42,9.03
			c-48.68-5.94-192.37-11.37-213.96,2.69c0,0,86.35,4.69,96.39,100.41S968.61,607.41,915.72,603.73z"/>
		<path class="st2" d="M1213.57,314.1c-3.07-1.15-3.66-6.72-0.43-6.63c15.7,0.43,28.57-10.14,39.2-20.27
			c13.68-13.04,4.98-69.98,5.01-86.43c0-1.91,1.24-3.52,2.9-3.77l65.61-3.36c3.03-0.45,3.74,2.88,2.96,6.26
			c-5.15,22.6-17.17,90.33-22.32,101.14c-5.26,11.03-11.45,13.75-18.03,16.37s-28.26,9.91-32.56,10.64
			c-4.29,0.74-7.71-0.02-10.95-1.47C1241.74,325.12,1213.57,314.1,1213.57,314.1z"/>
		<g>
			<path class="st7" d="M1003.33,300.21c90.35-2.21,140.22,65.46,129.23,166.39c-5.4,49.59-33.68,94.37-72.41,126.99"/>
			<path class="st7" d="M1121.55,302c79.61-1.95,123.55,59.18,113.86,148.12c-1.98,18.19-7.46,35.65-15.64,51.91"/>
			<line class="st7" x1="1133.78" y1="445.42" x2="1236.37" y2="424"/>
			<circle class="st8" cx="1144.41" cy="432.78" r="3.26"/>
			<circle class="st8" cx="1142.65" cy="456.13" r="3.26"/>
			<circle class="st8" cx="1229.01" cy="435.54" r="3.26"/>
			<circle class="st8" cx="1229.51" cy="416.97" r="3.26"/>
			<path class="st8" d="M1067.94,318.93c-0.92,0.98-3.04,1.08-4.7,0.34c-1.57-0.7-2.37-1.97-1.81-2.96c0.61-1.08,2.62-1.5,4.56-0.81
				C1068.07,316.24,1068.96,317.85,1067.94,318.93z"/>
			<path class="st8" d="M1099.07,342.66c-1,0.95-2.9,0.92-4.29,0.11c-1.32-0.76-1.99-2.11-1.51-3.17c0.56-1.24,2.5-1.76,4.36-0.9
				C1099.65,339.64,1100.26,341.54,1099.07,342.66z"/>
			<path class="st8" d="M1118.82,381.07c-1.05,0.88-2.77,0.67-3.95-0.25c-1.1-0.85-1.65-2.24-1.25-3.35
				c0.5-1.38,2.33-1.99,4.13-0.95C1119.77,377.69,1120.17,379.93,1118.82,381.07z"/>
			<path class="st8" d="M1127.11,428.6c-1.21,0.88-2.89,0.67-3.91-0.25c-0.94-0.85-1.25-2.24-0.65-3.35
				c0.75-1.38,2.69-1.99,4.3-0.95C1128.67,425.21,1128.67,427.46,1127.11,428.6z"/>
			<path class="st8" d="M1126.44,470.1c-1.21,0.88-2.89,0.67-3.91-0.25c-0.94-0.85-1.25-2.24-0.65-3.35
				c0.75-1.38,2.69-1.99,4.3-0.95C1128,466.72,1128,468.96,1126.44,470.1z"/>
			<path class="st8" d="M1112.72,516.96c-1.21,0.88-2.89,0.67-3.91-0.25c-0.94-0.85-1.25-2.24-0.65-3.35
				c0.75-1.38,2.69-1.99,4.3-0.95C1114.28,513.58,1114.28,515.82,1112.72,516.96z"/>
			
				<ellipse transform="matrix(0.1095 -0.994 0.994 0.1095 611.0145 1292.8152)" class="st8" cx="1027.06" cy="305.39" rx="1.86" ry="3.85"/>
			<path class="st8" d="M1203.15,322.12c-0.89,0.95-2.94,1.05-4.56,0.33c-1.53-0.67-2.3-1.91-1.76-2.87
				c0.59-1.05,2.54-1.45,4.43-0.78C1203.28,319.51,1204.14,321.07,1203.15,322.12z"/>
			<path class="st8" d="M1224.8,347.4c-0.97,0.92-2.81,0.89-4.16,0.1c-1.28-0.74-1.93-2.04-1.46-3.08c0.54-1.21,2.42-1.71,4.23-0.87
				C1225.36,344.46,1225.96,346.3,1224.8,347.4z"/>
			<path class="st8" d="M1240.19,378.61c-1.02,0.85-2.69,0.65-3.83-0.24c-1.06-0.82-1.6-2.18-1.21-3.25
				c0.49-1.33,2.26-1.93,4.01-0.92C1241.11,375.33,1241.5,377.51,1240.19,378.61z"/>
			<path class="st8" d="M1245.73,415.59c-1.17,0.85-2.8,0.65-3.79-0.24c-0.92-0.82-1.22-2.18-0.63-3.25
				c0.72-1.33,2.61-1.93,4.17-0.92C1247.24,412.31,1247.24,414.49,1245.73,415.59z"/>
			<path class="st8" d="M1246.31,436.51c-1.17,0.85-2.8,0.65-3.79-0.24c-0.92-0.82-1.21-2.18-0.63-3.25
				c0.72-1.33,2.61-1.93,4.17-0.92C1247.82,433.23,1247.82,435.41,1246.31,436.51z"/>
			<path class="st8" d="M1242.46,474.16c-1.17,0.85-2.8,0.65-3.79-0.24c-0.92-0.82-1.21-2.18-0.63-3.25
				c0.72-1.33,2.61-1.93,4.17-0.92C1243.97,470.88,1243.97,473.06,1242.46,474.16z"/>
		</g>
		<g>
			<path class="st9" d="M1041.87,310.72c0,0-1.71-11.63-3.95-17.86c-2.37-6.61-5.7-7.88-21.86-9.63
				c-22.19-2.4-17.25,3.53-17.25,3.53l4.94,15.3L1041.87,310.72z"/>
			<path class="st6" d="M1000.79,302.33l2.96-0.27l-4.74-17.65c0,0-2.96-1.88-2.96,2.22S1000.79,302.33,1000.79,302.33z"/>
			<path class="st10" d="M998.82,297.31c0,0-1.45-5.04-1.98-7.63c-0.53-2.59-1.54-5.11,1.05-5.23c7.09-0.32,23-0.36,31.73,1.78
				c6.52,1.6,10.67,24.14,10.67,24.14s23.04,4.1,50.64,2.14c29.12-2.06,79.12-5.54,79.12-5.54s-51.55-24.23-91.84-26.78
				c-40.29-2.56-75.32-1.33-78.74-1.25c-3.42,0.08-8.69,2.29-7.64,7.99c1.05,5.7,4.21,13.43,4.21,13.43l4.74,1.97L998.82,297.31z"/>
		</g>
		<g>
			<polygon class="st10" points="1259.91,386.03 1257.25,404.11 1270.14,424.49 1334.07,418.37 1296.9,401.66 1313.49,381.53 
				1281.35,377.65 1284.6,359.72 			"/>
			<polygon class="st9" points="1260.04,389.17 1257.57,406.13 1269.56,425.24 1329,419.5 1294.44,403.83 1309.86,384.95 
				1279.98,381.3 1283,364.49 			"/>
		</g>
		<path class="st3" d="M915.72,603.73l62.25,37.15c0,0,237.97-144.59,271.11-156.64c0,0-2.76,5.21,28.57-5.57
			c64.98-22.36,58.55-72,72.93-177.19c5.29-38.73,9.37-79.99,7.7-81.67c-0.53-0.53-29.12-25.44-29.12-25.44l17.91,45.85
			c0,0-14.7,104.33-22.59,117.48c-13.56,22.59-74.1,33.58-129.61,45.2c-123.17,25.77-154.63,5.69-154.63,5.69
			C1050.28,504.33,968.61,607.41,915.72,603.73z"/>
		<g>
			<path class="st2" d="M1502.13,624.82c-3.35-19.41-27.45-23.43-56.23-26.11c-7.84-0.73-41.5-5.42-84.7-11.61l-31.78-6.46
				l-14.06,6.69l-16-9.17c-61.93-9.01-127.6-18.69-163.01-23.92c0,0,1.97-19.72-8.38-20.91c0,0-41.15,21.2-76.7,40.28
				c-41.04,22.02-82.33,34.76-96.32,55.98c-5.6,8.5,0.51,19.78,10.69,19.86c9.97,0.08,18.51-1.28,26.42-3.66
				c19.94,8.67,180.72,78.06,240.96,87.47c43.42,6.78,55.26,17.98,83.09,12.55c21.65-4.22,56.71-19.85,99.66-46.69
				C1496.1,648.92,1506.28,648.89,1502.13,624.82z"/>
			<path class="st3" d="M1487.06,612.27c-1.67-10.02-12.38-10.88-41.17-13.56c-7.84-0.73-41.5-5.42-84.7-11.61l-31.78-6.46
				l-14.06,6.69l-16-9.17c-61.93-9.01-127.6-18.69-163.01-23.92c0,0,1.97-19.72-8.38-20.91c0,0-41.15,21.2-76.7,40.28l45.18,33.14
				l286.51,24.77l24.1,27.45C1470.19,626.72,1489.57,627.33,1487.06,612.27z"/>
			<path class="st10" d="M1002.76,634.88c34.65,8.73,171.92,43.04,229.59,53.53c66.27,12.05,85.68,13.39,89.03,24.1
				c5.68,18.18,3.35,32.13-8.53,34.31c-19.77,3.62-58.41-8.2-98.57-16.23s-196.14-71.63-196.14-71.63
				c-11.72-3.36-25.44-8.55-25.44-20.74C992.71,638.22,994.33,632.76,1002.76,634.88z"/>
			<g>
				<path class="st10" d="M1200.89,683.06l48.2-10.04l10.04-16.07l32.13,6.02l84.35-16.07l26.11,8.03l-16.74,40.16l-13.39,24.1
					l-26.11-6.02l-52.88,14.73C1292.6,727.91,1208.46,691.71,1200.89,683.06z"/>
				<path class="st9" d="M1214.81,691.09l42.84-8.93l8.93-14.28l28.56,5.36l74.97-14.28l23.21,7.14l-11.69,27.67l-10.71,21.42
					l-27.45-6.02l-50.21,11.38C1293.27,720.54,1221.54,698.78,1214.81,691.09z"/>
			</g>
			<g>
				<path class="st10" d="M1103.83,627.5c3.35-1.34-26.94,25.94-26.94,25.94s2.84,21.59-2.51,20.25s-17.4-18.07-17.4-26.11
					C1056.97,639.55,1100.48,628.83,1103.83,627.5z"/>
				<path class="st9" d="M1100.02,631.27c2.8-1.12-22.54,21.7-22.54,21.7s2.38,18.06-2.1,16.94c-4.48-1.12-14.56-15.12-14.56-21.84
					C1060.82,641.35,1097.22,632.39,1100.02,631.27z"/>
			</g>
		</g>
		<path class="st3" d="M1128.09,615.78c0,0,102.42,22.59,117.48,21.09s31.63-9.04,31.63-9.04L1128.09,615.78z"/>
	</g>
	<g>
		<path class="st11" d="M1050.76,465.32c-22.09,98.29-125.53,180.54-229.23,180.78c-102.46,0.23-162.35-84.54-134.32-176.17
			c27.76-90.73,125.57-168.57,222.84-170.75C1008.43,296.96,1072.16,370.14,1050.76,465.32z"/>
		<g>
			<path class="st11" d="M1050.76,465.32c-22.09,98.29-125.53,180.54-229.23,180.78c-102.46,0.23-162.1-83.53-134.32-176.17
				c27.26-90.88,125.57-168.57,222.84-170.75C1008.43,296.96,1072.16,370.14,1050.76,465.32z"/>
			<path class="st10" d="M946.56,471.61c-17.24,79.54-90.26,145.58-163.09,147.51c-72.83,1.93-117.89-60.98-100.65-140.52
				c17.24-79.54,91.12-148.4,163.95-150.33C919.6,326.34,963.8,392.08,946.56,471.61z"/>
			<path class="st9" d="M944.5,475.9c-16.29,75.16-85.29,137.56-154.11,139.39c-68.82,1.82-111.4-57.63-95.1-132.78
				c16.29-75.16,84.01-144.38,152.83-146.2C916.93,334.48,960.79,400.75,944.5,475.9z"/>
			<path class="st10" d="M911.21,361.62l37.05-5.9l-0.4,49.58L984,421.49l7.66,50.52L933.3,510.1
				C933.3,510.1,893.59,399.77,911.21,361.62z"/>
			<path class="st9" d="M911.12,358.44l8.28,5.65l28.7-5.36l-0.25,49.2l33.39,15.56l7.78,50.21l-73.81,47.7
				c0,0-11.91-70.86-10.66-121.89C904.97,382.49,906.85,367.68,911.12,358.44z"/>
			<path class="st12" d="M864.68,519.9l25.51-36.35c2.8-3.99,7.49-6.21,12.35-5.85c7.03,0.52,18.15,1.54,30.87,3.43
				c12.55,1.87,16.15,18.27,5.56,25.25l0,0c-3.41,2.25-8.85,35.09-8.85,35.09s-33,30.45-36.48,29.12l-22.56-29.81
				C862.65,537.57,859.5,527.28,864.68,519.9z"/>
			<path class="st13" d="M811.8,347.68c0,0,20.8,89.99,103.93,99.41c50.21,5.69,58.91-16.4,58.91-16.4"/>
			<path class="st13" d="M798.41,350.03c0,0-5.19,76.65,49.7,87.36c44.33,8.65,87.69-62.25,88.36-74.97"/>
		</g>
		<path class="st10" d="M1538.27,482.23l19.41-70.06c0,0-6.99-32.18,6.7-40.39c40.16-24.1,72.3,12.05,72.3,12.05
			s20.35,36.14,17.4,39.5c0,0-72.77,108.98-74.98,109.33c-5.7,0.89-23,0.6-40.86-0.02c-23.6-0.81-48.17-2.2-48.17-2.2
			L1538.27,482.23z"/>
		<path class="st2" d="M1636.37,384.21c4.67-1.74,26.42,29.08,20.39,40.46s-63.49,106.09-65.6,106.44c-0.01,0-10.53,2.14-22.33,1.89
			c-7.14-0.15,13.24-13.19,26.35-38.03c10.99-20.84,37.49-70.96,37.49-70.96S1633.87,387.2,1636.37,384.21z"/>
	</g>
	<g>
		<path class="st0" d="M599.43,615.78c0,0,84.35-78.32,141.58-84.35s86.44-3.74,101.75-5.02c32.13-2.68,48.2,43.51,64.93,52.21
			c0,0,26.11-9.04,44.18,12.05c18.07,21.09,38.16,41.17,38.16,41.17l43.68,26.61c0,0,13.94,33.84-8.53,34.64
			c-58.29,2.08-201.43-15.63-268.1-30.12C664.7,642.89,571.31,650.93,599.43,615.78z"/>
		<path class="st0" d="M1163.73,538.01c-13.43-4.95,23.1-47.96,42.78-64.06c19.68-16.1,65.3-26.39,89-23.26
			c23.7,3.13,61.27,60.82,61.27,60.82s-92.58,24.15-100.63,26.83C1248.1,541.04,1177.16,542.97,1163.73,538.01z"/>
		<path class="st14" d="M902.67,881.37l33.14-21.09l6.02-24.1l27.11-6.02l25.6,3.01l12.05,21.09l-0.5,25.44l-43.18,9.2
			C962.92,888.9,919.24,899.44,902.67,881.37z"/>
		<path class="st14" d="M1076.41,713.33l-27.52,5.41c0,0-4.4,9.4-15.34,13.64c-10.94,4.24,6.89,12.24,6.89,12.24l54.05-7.28
			l12.7-11.46L1076.41,713.33z"/>
		<g>
			<path class="st14" d="M725.89,664.03c0,0-18.07,2.01-26.11-6.02c-8.03-8.03,20.08-44.18,40.16-48.2
				c20.08-4.02,20.08,16.07,32.13,30.12C784.13,653.99,758.03,668.05,725.89,664.03z"/>
			<path class="st9" d="M719.44,657.7c29.67-10.43,33.41-41.51,18.5-40.86c-8.63,0.37-28.79,25.39-33.14,35.14
				C700.46,661.73,719.44,657.7,719.44,657.7z"/>
		</g>
		<g>
			<g>
				<path class="st15" d="M825.35,849.07c0.87,21.83-48.39,49.28-77.32,45.85c-27.61-3.27-39.82-37.5-31.82-63.87
					c6.61-21.76,24.76-36.09,43.53-41.57c8.03-2.34,21.76-3.35,34.14,0C813.47,794.78,826.69,818.95,825.35,849.07z"/>
				<path class="st16" d="M800.43,831.54c0.22,26.8-47,34.29-60.76,32.93c-13.76-1.36-25.03-19.3-17-42.01
					c3.17-8.96,8.3-14.26,14.73-17.23c7.03-3.24,12.71,5.67,22,6.3c8.98,0.61,20.98-6.95,28.03-2.85
					C795.09,813.13,800.34,820.28,800.43,831.54z"/>
				<path class="st17" d="M796.29,828.2c0.85,25.43-38.89,38.97-56.62,36.27c-17.72-2.7-23.39-19.27-16.07-39.83
					c3.77-10.59,8.53-16.43,16.53-18.2c4.84-1.07,11.21,6.6,17.61,6.82c9.94,0.35,20-7.38,28.12-3.01
					C792.65,813.9,795.98,818.99,796.29,828.2z"/>
				<path class="st2" d="M721.74,848.35l69.47-1.29c0,0,4.02-30.79-6.02-34.81C775.15,808.24,719.33,841.26,721.74,848.35z"/>
			</g>
			<path class="st15" d="M714.9,835.35c0,0,9.42,8.37,19.46,8.37c10.04,0,12.4-13.05,19.52-13.05c4.05,0,5.49,11.37,10.54,14.06
				c8.2,4.35,27.79-1.51,32.81-4.02c5.02-2.51,14.73,20.08,3.68,31.13c-11.05,11.05-45.85,31.13-66.94,20.08
				C712.89,880.87,709.88,856.43,714.9,835.35z"/>
			<path class="st16" d="M720.26,836.67c0,0,5.36,8.18,14.81,8.18c9.45,0,13.55-12.27,17.33-12.76c3.78-0.49,5.16,11.12,9.92,13.75
				c7.72,4.25,30.71-1.47,35.44-3.93c4.73-2.45,9.14,24.19,3.47,30.44c-4.12,4.54-11.67,14.37-22.81,18.02
				c-14.51,4.75-33.61,7.44-44.43,1.55C714.14,881.11,715.54,857.29,720.26,836.67z"/>
		</g>
		<path class="st0" d="M722.43,891.91c0,0,8.53-10.04,19.08-5.52s29.12-7.53,41.67-16.07c12.55-8.53,40.42,1,34.89,10.54
			C812.55,890.41,744.52,931.07,722.43,891.91z"/>
		<path class="st0" d="M733.74,884.33c2.38,6.29-3.52,10.46-11.32,10.92c-6.73,0.4-15.24-1.93-20.97-5.97
			c-7.6-5.36-9.94-13.43-0.81-16.88C712.68,867.85,730.18,874.9,733.74,884.33z"/>
		<path class="st0" d="M1485.39,531.77c0,0,16.07-9.37,27.45-7.36c11.38,2.01,16.74,3.35,16.74,3.35s35.48-17.4,47.53-2.01
			C1589.15,541.14,1460.62,560.56,1485.39,531.77z"/>
		<path class="st0" d="M1533.59,517.04c0,0-12.05,2.68-8.03,4.02c4.02,1.34,12.72-1.34,12.72-1.34S1539.61,515.71,1533.59,517.04z"
			/>
		<path class="st0" d="M1575.93,409.94c0,0-15.56,22.09-9.54,23.43s12.05-10.04,12.05-10.04s7.36,8.03,17.4-4.02
			c10.04-12.05,12.97-13.96,16.07-19.41c5.69-10.04-6.36-11.21-10.38-4.52c-4.02,6.69,0-6.19-8.03-3.51
			C1585.47,394.54,1578.61,401.24,1575.93,409.94z"/>
		<path class="st0" d="M1007.6,626.32c0,0,9.04-7.53,16.57,0C1031.7,633.86,982,639.88,1007.6,626.32z"/>
		<path class="st0" d="M1223.65,643.56c0,0-44.35-14.22-72.97-0.67c-12.84,6.08-7.53,16.57-7.53,16.57s-22.59,13.56-13.56,19.58
			c9.04,6.02,16.57,6.02,27.11-1.51c10.54-7.53,22.59-0.17,42.17-9.2S1273.36,648.08,1223.65,643.56z"/>
		<path class="st0" d="M1157.72,723.22c0,0,49.2-17.07,57.23-10.04c8.03,7.03,1,14.06,1,14.06s24.1-5.02,38.16-2.01
			c14.06,3.01,26.11,17.07,29.12,25.1c3.01,8.03-33.14-4.02-33.14-4.02S1177.8,741.3,1157.72,723.22z"/>
	</g>
	<path class="st0" d="M616.93,497.93c13.81-1.9,30.4,3.12,21.99,8.88s-28.57,11.96-28.57,11.96s12.98,11.76-4.29,19.61
		c-4.5,2.05,1.04,10.06-4.88,14.78c-16.77,13.37-49.38,28.35-72.3,23.92c-31-6-25.44-22.34-11.32-50.95
		C531.68,497.53,603.12,499.83,616.93,497.93z"/>
</g>
<g id="legs">
	<g>
		<path class="st2" d="M466.59,835.73c0,0-40.99,1.16-44.7,6.71c-5.19,7.76-3.94,20.66,11.31,25.33
			c15.25,4.68,37.02-6.92,37.02-6.92S493.37,831.98,466.59,835.73z"/>
		<path class="st18" d="M470.93,839.1c0,0-40.99,1.16-44.7,6.71c-5.19,7.76-3.94,20.66,11.31,25.33
			c15.25,4.68,37.02-6.92,37.02-6.92S497.7,835.35,470.93,839.1z"/>
	</g>
	<g>
		<path class="st19" d="M533.91,764.77c0,0-64.06-19.28-75.69-17.2c-11.62,2.08-24.31,16.06-14.54,31.21
			c9.77,15.15,13.59,16.35,44.21,22.14l19.16,7.14c0,0,37.84,9.53,48.2,6.53C567.89,810.92,555.68,766.51,533.91,764.77z"/>
		<path class="st20" d="M522.11,761.38c0,0-50.17-16.34-58.74-14.81c-8.57,1.53-11.38,9.87-6.49,22.1
			c4.93,12.34,14.05,9.03,36.61,13.29c4.54-0.01,18.83-2.51,24.1-8.03C522.87,768.41,526.13,762.88,522.11,761.38z"/>
		<path class="st19" d="M480.83,781.49c0,0,19.29-4.71,25.72-7.06c0,0,5.17,10.73-9.2,14.39
			C487.6,791.31,480.83,781.49,480.83,781.49z"/>
	</g>
	<path class="st19" d="M637.25,772.76c6.53,13.95,1.34,50.87-11.71,50.87c-13.05,0-72.57-7.52-79.32-8.53
		c-10.04-1.51-12.35-23.97-12.35-43.46c0-19.49,14.88-2.89,49.16-2.89C617.32,768.74,628.99,755.1,637.25,772.76z"/>
	<g>
		<path class="st2" d="M421.87,892.75c0,0-10.56,7.33-14.39,9.96c-8.79,6.02-12.05,5.77-12.55,15.31
			c-0.4,7.69,14.89,15.83,32.97,8.2c18.07-7.63,32.13-18.08,32.13-18.08s-0.1-12.35-3.85-14.72
			C447.74,888.08,437.51,879.01,421.87,892.75z"/>
		<path class="st18" d="M422.04,887.67c0,0-10.65,7.2-14.51,9.78c-8.86,5.92-12.12,5.62-12.74,15.16
			c-0.5,7.68,13.21,14.5,31.38,7.09s32.35-17.68,32.35-17.68s1.54-10.83-2.18-13.25C447.97,883.32,437.85,874.12,422.04,887.67z"/>
	</g>
	<g>
		<path class="st19" d="M419.69,893.92l-11.29-10.6l12.63-68.39l3.35-17.24c0,0,7.2-33.97,8.53-37.15
			c1.34-3.18,12.73-13.16,28.95-13.72c16.36-0.57,20.08,33.47,14.06,61.59c-4.21,19.63-9.04,52.38-9.04,52.38l-5.69,27.78
			l-15.4,9.37L419.69,893.92z"/>
		<path class="st20" d="M425.61,882.31l-13.03-5.33l-0.91-10.93l10.54-57.74l3.14-16.57c0,0,6.53-28.64,7.66-31.42
			c2.01-4.98,14.85-13.44,28.95-13.93c6.9-0.5,12.8,7.2,14.48,16.48c2.01,11.17-2.87,25.36-5.81,39.12
			c-3.66,17.07-15.77,38.2-15.77,38.2l-3.01,18.07l-9.04,10.54L425.61,882.31z"/>
		<path class="st19" d="M473.59,799.7c0,0-12.46,18.39-17.8,21.68c0,0,7.83-0.69,11.91-4.21
			C471.79,813.64,473.59,799.7,473.59,799.7z"/>
		<path class="st20" d="M453.35,860.94l-11.74,13.76C441.6,874.69,453.12,872.55,453.35,860.94z"/>
	</g>
	<g>
		<path class="st19" d="M570.31,822.13c-2.41,4.83-16.74,25.6-20.75,32.97c-16.79,30.79,16.25,49.3,41.42,26.1
			c25.16-23.19,37.49-52.57,40.43-61.07c2.93-8.5-8.8-15.92-18.42-19.08C602.86,797.71,579.01,804.72,570.31,822.13z"/>
		<g>
			<path class="st20" d="M578.53,812.11c-3.43,3.25-14.64,21.89-18.36,28.19c-0.32,0.06,25.2-14.66,25.2-14.66
				s42.61-16.16,45.85-23.43l-27.44-3.39C603.79,798.83,583.87,807.06,578.53,812.11z"/>
			<path class="st20" d="M560.17,840.3c0,0,34.74-9.13,42.77-14.16s13.05-9.04,13.05-9.04l-48.7,17.57L560.17,840.3z"/>
		</g>
	</g>
	<g>
		<path class="st19" d="M482.56,838.3l20.09,4.11c0,0,45.59,2.2,51.98,2.39c7.15,0.22,31.64,6.64,30.8,33.41
			c-0.42,13.49-18.4,16.28-18.4,16.28l-55.87-10.03l-40.94-11.14c0,0-2.13-18.81,0.08-21.64S482.56,838.3,482.56,838.3z"/>
		<path class="st16" d="M559.54,875l9.96,10.38c0,0-5.45,2.97-8.39,1.66c-2.93-1.31-8.57-5.03-9.71-9.41l5,1.29L559.54,875z"/>
	</g>
	<path class="st20" d="M567.3,842.71l26.11-2.01C593.4,840.7,577.34,854.76,567.3,842.71z"/>
</g>
<g id="right_arm_1_">
	<g>
		<path class="st10" d="M507.45,654.53c-3.67,3.29-20.82,23.18-29.12,35.58c-9.53,14.24-17.95,22.01-23.65,30.1
			c-11.77,16.72,9.41,29.65,18.61,22.1c9.2-7.55,20.85-22.17,26.61-27.68c14.09-13.48,18.45-20.67,24.16-26.42
			C532.75,679.47,529.2,635.04,507.45,654.53z"/>
		<path class="st21" d="M512.57,682.05c-2.73,2.45-23.08,28.47-21.69,26.51c-5.9,8.34-0.77,16.79-0.77,16.79s9.63-10.69,11.55-12.53
			c10.5-10.04,17.21-18.96,21.46-23.24C529.59,683.06,528.78,667.53,512.57,682.05z"/>
	</g>
</g>
<g id="torso">
	<g>
		<path class="st22" d="M618.51,653.6c-5.66-10.12-39.41-13.99-62.67-11.1c-9.84,1.22-18.48,1.81-25.69,3
			c-9.84,1.62-15.06,4.42-15.06,4.42c-0.27,0.47-1.97,3.15-1.51,6.28c2.48,16.81,10.54,38.91,10.54,38.91l14.06,49.2
			c0,0-8.25,23.79-6.02,27.78c1.37,2.45,10.31,23.23,24.77,27.45c16.07,4.69,81.67-22.76,81.67-22.76s3.13-37.55,2.01-47.53
			C639.1,715.92,629.05,672.43,618.51,653.6z"/>
		<path class="st23" d="M587.38,776.44c-9.04,6.02-30.12,9.04-30.12,9.04s-27.33-17.38-25.1-13.39
			c1.37,2.45,10.31,23.23,24.77,27.45c16.07,4.69,81.67-22.76,81.67-22.76s3.13-37.55,2.01-47.53c-1.5-13.32-6.46-58.84-24.1-78.66
			c-7.71-8.66-37.4-10.98-60.66-8.09c-9.84,1.22-18.48,1.81-25.69,3c-9.84,1.62-15.06,4.42-15.06,4.42s-2.55,4.22-1.51,9.29
			c1.76,8.53,13.22,45.48,13.22,45.48l4.03-7.9l47.52,6.35c0,0,10.44,14.48,13.6,15.79l-4.48-10.29l24.02,29.63
			c0,0-4.47,9.53-9.99,19.18c-1.26,2.21-21.08,16.72-21.08,16.72L587.38,776.44z"/>
		<g>
			<path class="st21" d="M580.29,641.75c1.31,0.1,2.26,1.26,2.11,2.56c-0.91,7.77-5.48,32.32-27.15,33.72
				c-21.45,1.39-23.17-32.83-23.17-32.83s14.12-2.52,30.2-3.48C570.79,641.21,577.1,641.51,580.29,641.75z"/>
			<path class="st10" d="M555.25,678.04c-21.45,1.39-23.15-32.84-23.15-32.84l4.78-0.77L555.25,678.04z"/>
		</g>
	</g>
	
		<ellipse transform="matrix(0.9268 -0.3754 0.3754 0.9268 -209.1296 278.9214)" class="st21" cx="611.18" cy="676.11" rx="18.53" ry="29.79"/>
	<g>
		<path class="st5" d="M542.1,642.05c0,0-1.03,2.37-0.92,5.27c0.41,11.66,2.88,40.64,13.74,45.6c4.04,1.85,14.48-22.13,15.67-40.46
			c0.26-4.02,0.92-10.81-2.77-13.32"/>
		<ellipse class="st12" cx="555.92" cy="696.61" rx="2.34" ry="5.36"/>
	</g>
</g>
<g id="hair-back">
	<g>
		<path class="st9" d="M599.18,600.72c-9.46,25.44-46.4,43.51-46.4,43.51c-7.25-3.63-39.6-30.64-38.7-54.22
			c0-24.03-0.58-36.82,38.49-36.82S607.55,578.19,599.18,600.72z"/>
		<path class="st24" d="M595.94,594.73c-8.03,21.6-38.93,8.59-38.93,8.59c-6.16-3.08-27.61-12.3-29.62-25.6
			c-1.72-11.37-4.31-24.35,28.87-24.35C586.63,553.36,603.05,575.6,595.94,594.73z"/>
		<path class="st9" d="M589.39,606.08c0,0,4.02-6.69,3.01-15.06C592.4,591.01,601.77,595.36,589.39,606.08z"/>
	</g>
</g>
<g id="neck">
	<g>
		<path class="st21" d="M536.1,620.58c0,0,6.37,25.77,7.1,28.34c2.43,8.62,26.4,8.24,26.44,0c0.01-2.91-2.61-34.17-2.61-34.17
			L536.1,620.58z"/>
	</g>
</g>
<g id="left_arm">
	<g>
		<path class="st21" d="M621.85,655.28c-10.7-8.79-26.01-7-26.45,11.94c-0.14,6.03,8.28,19.4,16.4,36.06
			c15.05,30.88,13.83,29.19,12.23,26.22c3.55,6.57,10.57,10.51,20.7,7.65c8.42-2.38,9.72-0.39,6.58-16.6
			c-1.57-8.11-6.26-18.52-11.46-29.96C634.64,679.15,631.23,662.97,621.85,655.28z"/>
		<path class="st10" d="M620.18,682.05c-4.35-3.68-18.41-18.07-17.4-6.69c0.41,4.6,0.96,5.75,6.77,20.26
			c7.42,18.54,12.92,32.73,15.49,38.52c2.56,5.79,9.17,8.4,19.69,3.01c4.16-2.13-11.83-41.37-11.83-41.37
			S624.53,685.73,620.18,682.05z"/>
	</g>
	<path class="st10" d="M654.49,731.92c-3.56-12.12-25.45-9.1-25.23,6.99c0.22,16.09,5.74,25.73,10.34,40.29
		c5.57,17.61,13.05,35.9,13.05,35.9s3.34,9.59,12.05,6.78c8.89-2.87,8.64-5.22,7.8-19.23C671.66,788.63,658.62,745.97,654.49,731.92
		z"/>
	<path class="st21" d="M654.49,731.92c-1.89-5.75-6.23-7.36-10.75-7.45c3.52,9.59,2.89,20.84,4.39,24.1
		c7.3,22.34,10.54,57.32,12.22,65.69c1.33,6.64,9.61,5.77,12.2-2.49c0.68-2.16,0.13-6.22-0.04-9.12
		C671.66,788.63,659.05,745.84,654.49,731.92z"/>
	<path class="st21" d="M654.28,814.81c0,0-12.17,16.95-13.38,21.79c-1.21,4.84-5.57,16.22-5.57,16.22s0,5.81,9.08,2.5
		c5.46-1.99,7.38-12.18,7.38-12.18l7.02-4.84l14.82,9.06l10.03,10.82c0,0,2.12,2.21,3.64,2.36c2.51,0.25,4.6-1.9,4.6-1.9
		l-10.23-15.92l9.5,9.29l3.84,4.88c0,0,2.84,1.89,4.09,1.64s5.22-3.21,5.22-3.21l-3.65-5.31c0,0,2.89-1.6,2.92-3.32
		c0.03-1.72-5.11-7.3-5.11-7.3l0.73-6.64c0,0-26.94-25.52-28.77-25.44C662.31,807.69,655.91,811.96,654.28,814.81z"/>
	<path class="st10" d="M653.9,812.09c0,0-11.8,19.67-13.01,24.52c-1.21,4.84-5.57,16.22-5.57,16.22s-1.8,4.25,7.28,0.94
		c5.46-1.99,6.02-10.29,6.02-10.29l8.28-12.8l9.12,2.34l7.7-0.33c-3.84-8.36-10.31-22.34-12.55-22.34
		C657.67,810.33,656.29,810.11,653.9,812.09z"/>
</g>
<g id="right_forearm">
	<path class="st10" d="M486.97,778.77c0,0-32.44-34.81-34.77-38.99c-2.32-4.16-2.1-8.3-1.24-11.36s4.25-8.39,14.27-9.92
		c13.54-2.07,16.13,4.8,19.87,9.61c3.74,4.81,14.66,24.44,18.7,32.78c4.11,8.49,7.04,11.38,1.39,18.29
		C499.08,786.67,486.97,778.77,486.97,778.77z"/>
	<path class="st21" d="M486.97,778.77c0,0-32.44-34.81-34.77-38.99c-2.32-4.16-2.1-8.3-1.24-11.36s17.08,6.41,20.82,11.22
		c3.74,4.81,14.66,24.44,18.7,32.78c4.11,8.49,20.36-0.15,14.72,6.76C499.08,786.67,486.97,778.77,486.97,778.77z"/>
	<g>
		<path class="st25" d="M490.57,801.95c-4.79,1.04-5.65,5.2-4.76,6.22c1.79,2.07,6.6,6.33,6.6,6.33s4.97,1.04,6.16-2.49
			C499.47,807.44,493.35,801.35,490.57,801.95z"/>
		<path class="st10" d="M488.68,779.2l-2.28,18.58l6.44,9.96l-0.04,7.3l7.51-1.99l5.44,0.66l8.79-2.65l8.48-3.42
			c0,0,4.1-9.98,2.9-14.5s-15.93-21.1-19.32-23.49C503.19,767.25,491.66,773.22,488.68,779.2z"/>
		<path class="st21" d="M488.68,779.2l-2.28,18.58l6.44,9.96l-0.04,7.3l7.51-1.99l5.44,0.66l8.79-2.65l8.48-3.42
			c0,0,4.1-9.98,2.9-14.5s-27.23,2.72-27.23,2.72s-2.33-16.61-6.13-21.04C491.55,775.06,489.23,777.95,488.68,779.2z"/>
	</g>
</g>
<g id="head">
	<g>
		<path class="st21" d="M546.58,563.6c0,0-21.25-2.77-24.91,0.23c-3.66,3-10.99,50.04-6.84,62.55c4.15,12.52,42.75,11.78,53.51,4.98
			c2.51-1.58,8.7-10.29,11.87-21.76c3.31-12-4.46-20.91-4.78-25.68C574.89,575.81,546.58,563.6,546.58,563.6z"/>
	</g>
	<path class="st10" d="M573.92,613.76c-1.6,8.05-15.46,21.98-31.69,20.38c-16.23-1.6-27.4-7.75-27.1-26.18
		c0.31-19.02,24.81-34.93,41.04-33.32C572.41,576.24,575.79,594.83,573.92,613.76z"/>
	<g>
		<path class="st26" d="M552.95,584.74c-0.31,3.13-1.92,4.35-3.48,4.2c-1.56-0.15-2.49-1.63-2.18-4.76
			c0.31-3.13,1.83-5.54,3.39-5.38S553.25,581.62,552.95,584.74z"/>
		<path class="st26" d="M527.85,585.97c-0.31,3.13-1.92,4.35-3.48,4.2s-2.49-1.63-2.18-4.76c0.31-3.13,1.83-5.54,3.39-5.38
			C527.14,580.18,528.16,582.84,527.85,585.97z"/>
		<path class="st27" d="M549.56,571.05c0,0,4.53,3.5,5.28,3.5"/>
	</g>
	
		<ellipse transform="matrix(0.4021 -0.9156 0.9156 0.4021 -205.8412 889.9194)" class="st10" cx="578.45" cy="602.56" rx="13.04" ry="7.51"/>
	<g>
		<g>
			<path class="st9" d="M564.71,559.67c0,0-44.53,21.84-56.62,21.66c-12.09-0.18,4.76-27.78,24.34-31.91
				C552,545.3,564.71,559.67,564.71,559.67z"/>
		</g>
		<path class="st24" d="M566.96,559.89c0,0-0.61,2.62-8.7,4.35c-13.97,3-39.55,5.82-45.69,5.73c-9.7-0.15,4.35-16.87,19.91-20.79
			C549.14,544.98,566.96,559.89,566.96,559.89z"/>
		<path class="st9" d="M541.94,560.81c0,0-13.81,9.79-24.35,10.29C517.59,571.1,542.45,570.35,541.94,560.81z"/>
	</g>
	<path class="st24" d="M572.52,572.55c0,0-4.41,17.39-2.93,22.92l3.87,8.45l5.16-25.05L572.52,572.55z"/>
</g>
</svg>
