<?xml version="1.0" encoding="utf-8"?>
<!-- Generator: Adobe Illustrator 19.0.0, SVG Export Plug-In . SVG Version: 6.00 Build 0)  -->
<svg version="1.1" xmlns="http://www.w3.org/2000/svg" xmlns:xlink="http://www.w3.org/1999/xlink" x="0px" y="0px"
	 viewBox="0 0 600 600" enable-background="new 0 0 600 600" xml:space="preserve">
<g id="CLOUD_1">
	<linearGradient id="XMLID_4_" gradientUnits="userSpaceOnUse" x1="180.5051" y1="432.0154" x2="282.1192" y2="491.0171">
		<stop  offset="0" style="stop-color:#DEF1ED"/>
		<stop  offset="1" style="stop-color:#E6F1F2;stop-opacity:0"/>
	</linearGradient>
	<path id="XMLID_235_" fill="url(#XMLID_4_)" d="M278.6,487.7c0,0-10-6.8-11-11.1s-0.4-14-5.3-15c-4.9-1-5,6.4-5,6.4s-0.9,1.6-6-9.9
		c-5.1-11.4-9.2-20.9-16.2-20.4c-7,0.5,1,12.4-2.2,13c-3.2,0.6-4.9-11.5-12.4-12.3c-7.5-0.8-7,4.6-12.4,2.4
		c-5.4-2.1-15-13.5-15-13.5s2.3,19.8,10.8,27.3c8.5,7.5,16.3,7.5,16.6,11.5s-10-1.5-9.6,4.6c0.4,6.1,11.9,15.9,23.6,16.2
		c11.7,0.3,12.4-2.4,20.1,0.5S274.7,489.6,278.6,487.7z"/>
</g>
<g id="CLOUD_2">
	
		<linearGradient id="XMLID_6_" gradientUnits="userSpaceOnUse" x1="356.4667" y1="461.1064" x2="425.9764" y2="461.1064" gradientTransform="matrix(1.3336 0.2804 -0.2446 1.1635 -4.1486 -190.9435)">
		<stop  offset="0" style="stop-color:#DEF1ED"/>
		<stop  offset="1" style="stop-color:#E6F1F2;stop-opacity:0"/>
	</linearGradient>
	<path id="XMLID_350_" fill="url(#XMLID_6_)" d="M349.7,486.9c0,0,17,2.7,27.5-0.8c10.5-3.5,8.9-11.2,14.9-10.2
		c6,1,16.4,13.4,25,5.2c8.6-8.2-7.8-11-4.8-16.1s8.3-2.2,18.3-5c10-2.7,29.2-36.5,29.2-36.5s-10,5.9-22.1,5.9
		c-12.1,0-15.7,1.8-17.9,9.3c-2.2,7.5-7,6.8-10.6,3.7c-3.6-3-2.8-10-10.3-6.7c-7.5,3.3-12.8,12.7-15.1,20.7c-2.3,8-6.1,7.5-7.6,3.8
		c-1.5-3.7-10.2,0.4-11.5,8.1C363.4,476.1,355,486.8,349.7,486.9z"/>
</g>
<g id="CLOUD_3">
	<g id="XMLID_486_">
		
			<linearGradient id="XMLID_7_" gradientUnits="userSpaceOnUse" x1="528.9977" y1="478.9969" x2="471.7984" y2="575.3596" gradientTransform="matrix(0.9999 1.482853e-002 -1.482853e-002 0.9999 7.9843 -8.653)">
			<stop  offset="0" style="stop-color:#E6F1F2;stop-opacity:0"/>
			<stop  offset="0.3239" style="stop-color:#E2F1EF;stop-opacity:0.3239"/>
			<stop  offset="1" style="stop-color:#DEF1ED"/>
		</linearGradient>
		<path id="XMLID_176_" fill="url(#XMLID_7_)" d="M454.4,536.5c0,0,23.1-11.6,26.7-17c3.6-5.4,6-3.7,6-1.6s-0.6,3.7-0.6,3.7
			s3.4-12.1,8.4-13.4c5-1.2,6.2,3.6,6.2,3.6s10.1-16.1,13.8-20.6c8-9.9,17.8-3.1,15.8,1.4c-9,19.7,26.2,5.7,26.2,5.7
			s-40.4,22.5-50.3,31C493.8,540.4,474.2,533.5,454.4,536.5z"/>
		<g id="XMLID_315_">
			
				<linearGradient id="XMLID_8_" gradientUnits="userSpaceOnUse" x1="516.6578" y1="465.1036" x2="466.0538" y2="550.3552" gradientTransform="matrix(0.9999 1.482853e-002 -1.482853e-002 0.9999 7.9843 -8.653)">
				<stop  offset="0" style="stop-color:#E6F1F2;stop-opacity:0"/>
				<stop  offset="0.3239" style="stop-color:#E2F1EF;stop-opacity:0.3239"/>
				<stop  offset="1" style="stop-color:#DEF1ED"/>
			</linearGradient>
			<path id="XMLID_5_" fill="url(#XMLID_8_)" d="M500.8,488.1c-5.1,1.2-6.1,10.4-2.4,11.4C501.9,500.4,505.3,487,500.8,488.1z"/>
			
				<linearGradient id="XMLID_9_" gradientUnits="userSpaceOnUse" x1="558.5413" y1="472.6827" x2="507.9374" y2="557.9344" gradientTransform="matrix(1.8265 3.974734e-002 -1.364461e-002 1.7737 -445.949 -413.4543)">
				<stop  offset="0" style="stop-color:#E6F1F2;stop-opacity:0"/>
				<stop  offset="0.3239" style="stop-color:#E2F1EF;stop-opacity:0.3239"/>
				<stop  offset="1" style="stop-color:#DEF1ED"/>
			</linearGradient>
			<path id="XMLID_316_" fill="url(#XMLID_9_)" d="M544,479.4c-5.9-2-9.4,15.1-5.4,17.2C542.5,498.6,556.2,483.4,544,479.4z"/>
			
				<linearGradient id="XMLID_14_" gradientUnits="userSpaceOnUse" x1="508.7693" y1="460.4211" x2="458.1654" y2="545.6728" gradientTransform="matrix(0.9999 1.482853e-002 -1.482853e-002 0.9999 7.9843 -8.653)">
				<stop  offset="0" style="stop-color:#E6F1F2;stop-opacity:0"/>
				<stop  offset="0.3239" style="stop-color:#E2F1EF;stop-opacity:0.3239"/>
				<stop  offset="1" style="stop-color:#DEF1ED"/>
			</linearGradient>
			<path id="XMLID_485_" fill="url(#XMLID_14_)" d="M480.4,507.6c-4.4-3.1-8.5,9.3-7.2,9.9C474.2,518,485.5,511.1,480.4,507.6z"/>
		</g>
	</g>
</g>
<g id="CLOUD_4">
	<g id="XMLID_338_">
		
			<linearGradient id="XMLID_15_" gradientUnits="userSpaceOnUse" x1="307.4102" y1="-87.6735" x2="335.4732" y2="-44.7771" gradientTransform="matrix(-0.8067 0.591 -0.8521 -1.1631 587.3239 61.3011)">
			<stop  offset="0" style="stop-color:#DEF1ED"/>
			<stop  offset="1" style="stop-color:#E6F1F2;stop-opacity:0"/>
		</linearGradient>
		<path id="XMLID_343_" fill="url(#XMLID_15_)" d="M502.2,401.3c3.9-2,8.1-8.1,4.8-12.1C503.6,385.3,495.6,404.6,502.2,401.3z"/>
		
			<linearGradient id="XMLID_16_" gradientUnits="userSpaceOnUse" x1="128.7156" y1="-48.4919" x2="156.7787" y2="-5.5955" gradientTransform="matrix(-0.9408 0.339 -0.4888 -1.3565 555.6636 214.5622)">
			<stop  offset="0" style="stop-color:#DEF1ED"/>
			<stop  offset="1" style="stop-color:#E6F1F2;stop-opacity:0"/>
		</linearGradient>
		<path id="XMLID_342_" fill="url(#XMLID_16_)" d="M516.2,390c3-0.3,7.9-3.7,6.4-7.1C521.2,379.6,511.5,390.4,516.2,390z"/>
		
			<linearGradient id="XMLID_17_" gradientUnits="userSpaceOnUse" x1="125.7307" y1="-55.1777" x2="153.7937" y2="-12.2813" gradientTransform="matrix(-0.9499 0.3126 -0.4507 -1.3696 561.5787 193.1357)">
			<stop  offset="0" style="stop-color:#DEF1ED"/>
			<stop  offset="1" style="stop-color:#E6F1F2;stop-opacity:0"/>
		</linearGradient>
		<path id="XMLID_341_" fill="url(#XMLID_17_)" d="M526.2,375.9c1.5-0.1,5.3-1.5,4.2-2.9C528.4,370.3,523.8,376,526.2,375.9z"/>
		
			<linearGradient id="XMLID_18_" gradientUnits="userSpaceOnUse" x1="467.7039" y1="-96.941" x2="495.7669" y2="-54.0446" gradientTransform="matrix(-0.6252 0.7805 -1.1253 -0.9014 578.5699 -110.5332)">
			<stop  offset="0" style="stop-color:#DEF1ED"/>
			<stop  offset="1" style="stop-color:#E6F1F2;stop-opacity:0"/>
		</linearGradient>
		<path id="XMLID_340_" fill="url(#XMLID_18_)" d="M515,376.2c1.9-1.4,5.6-6.4,2.9-7.3C513.1,367.1,512,378.4,515,376.2z"/>
		
			<linearGradient id="XMLID_22_" gradientUnits="userSpaceOnUse" x1="476.3328" y1="-102.5861" x2="504.3958" y2="-59.6897" gradientTransform="matrix(-0.6252 0.7805 -1.1253 -0.9014 578.5699 -110.5332)">
			<stop  offset="0" style="stop-color:#DEF1ED"/>
			<stop  offset="1" style="stop-color:#E6F1F2;stop-opacity:0"/>
		</linearGradient>
		<path id="XMLID_339_" fill="url(#XMLID_22_)" d="M505.5,383.2c0.8-0.6,2.4-2.8,1.3-3.2C504.6,379.2,504.2,384.2,505.5,383.2z"/>
	</g>
</g>
<g id="CLOUD_5">
	<g id="XMLID_631_">
		
			<linearGradient id="XMLID_23_" gradientUnits="userSpaceOnUse" x1="188.3858" y1="231.1161" x2="234.2761" y2="301.2626" gradientTransform="matrix(0.4097 0.9122 -1.3153 0.5908 205.4227 214.9692)">
			<stop  offset="0" style="stop-color:#DEF1ED"/>
			<stop  offset="1" style="stop-color:#E6F1F2;stop-opacity:0"/>
		</linearGradient>
		<path id="XMLID_636_" fill="url(#XMLID_23_)" d="M98.8,401.7c-1.8-6.9-10.1-15.8-17.7-11.7C73.7,394,101.9,413.3,98.8,401.7z"/>
		
			<linearGradient id="XMLID_24_" gradientUnits="userSpaceOnUse" x1="113.4622" y1="282.7227" x2="159.3525" y2="352.8693" gradientTransform="matrix(0.1353 0.9908 -1.4286 0.1951 348.7089 277.901)">
			<stop  offset="0" style="stop-color:#DEF1ED"/>
			<stop  offset="1" style="stop-color:#E6F1F2;stop-opacity:0"/>
		</linearGradient>
		<path id="XMLID_635_" fill="url(#XMLID_24_)" d="M85.5,375.3c0.6-5-3.3-13.9-9.1-12.7C70.6,363.8,84.6,383.1,85.5,375.3z"/>
		
			<linearGradient id="XMLID_25_" gradientUnits="userSpaceOnUse" x1="115.3656" y1="281.6793" x2="161.2558" y2="351.8259" gradientTransform="matrix(0.1076 0.9942 -1.4335 0.1551 328.9874 267.6468)">
			<stop  offset="0" style="stop-color:#DEF1ED"/>
			<stop  offset="1" style="stop-color:#E6F1F2;stop-opacity:0"/>
		</linearGradient>
		<path id="XMLID_634_" fill="url(#XMLID_25_)" d="M66.3,354.5c0.4-2.5-0.6-9-3.3-7.7C58.2,349.1,65.7,358.4,66.3,354.5z"/>
		
			<linearGradient id="XMLID_26_" gradientUnits="userSpaceOnUse" x1="239.1549" y1="196.7087" x2="285.0452" y2="266.8553" gradientTransform="matrix(0.6329 0.7742 -1.1163 0.9126 35.542 187.6887)">
			<stop  offset="0" style="stop-color:#DEF1ED"/>
			<stop  offset="1" style="stop-color:#E6F1F2;stop-opacity:0"/>
		</linearGradient>
		<path id="XMLID_633_" fill="url(#XMLID_26_)" d="M63,372.6c-1.6-3.5-8.3-11.1-10.7-7.2C47.9,372.5,65.5,378.1,63,372.6z"/>
		
			<linearGradient id="XMLID_27_" gradientUnits="userSpaceOnUse" x1="253.2654" y1="187.4775" x2="299.1557" y2="257.6241" gradientTransform="matrix(0.6329 0.7742 -1.1163 0.9126 35.542 187.6887)">
			<stop  offset="0" style="stop-color:#DEF1ED"/>
			<stop  offset="1" style="stop-color:#E6F1F2;stop-opacity:0"/>
		</linearGradient>
		<path id="XMLID_632_" fill="url(#XMLID_27_)" d="M71,390.2c-0.7-1.5-3.6-4.9-4.7-3.2C64.4,390.2,72.1,392.6,71,390.2z"/>
	</g>
</g>
<g id="ORNAMENT_1">
	<g id="XMLID_328_">
		<linearGradient id="XMLID_28_" gradientUnits="userSpaceOnUse" x1="275.3482" y1="332.6671" x2="122.927" y2="318.9001">
			<stop  offset="0" style="stop-color:#DEF1ED"/>
			<stop  offset="1" style="stop-color:#E6F1F2;stop-opacity:0"/>
		</linearGradient>
		<path id="XMLID_331_" fill="url(#XMLID_28_)" d="M382.2,316.5c0,0-6.4,3.1-12.5,2.2s11.1-7.8,10.1-15.8s-2.3-6.6,3.3-12.6
			c5.6-6.1,3.3-13.6-1.4-13.1s-12.2,18.7-20.1,20.6s-12.2,1.9-17.8,8s-15.4,8.9-18.3,5.1c-2.8-3.7,0.9-15.4-8.9-11.7
			c-9.8,3.7-12.2,17.3-21.1,19.2c-8.9,1.9-2.8-10.1-8.9-11.2s-11.2,12.6-19.2,14.3s-15.7,3.5-18.3-0.9c-2.6-4.4-1.6-19.9-6.6-25
			c-4.9-5.1-13.6-2.6-16.4,3.7s0.5,14.7-3.7,14.5c-4.2-0.2-6.1-6.3-4-11.7s12.2-11.1,8.5-17.3c-3.7-6.2-9-9.7-18.7-5
			c-9.7,4.7-9.4,14-16.5,13.4c-7.2-0.6-11.2-10.9-24-7.2c-12.8,3.7-15.6,16.2-6.9,27.5s22.2,10.3,23.7,15.6c1.6,5.3-10,8.4-7.8,16.9
			s10.6,10.3,19,5.3c8.4-5,10-4.1,15.3,2.2c5.3,6.2,14.7,8.7,17.5,8.7s10.6,4.7,6.9,6.6c-3.7,1.9-17.5-10.3-24.3-1.9
			c-6.9,8.4,12.8,28.4,25.6,27.5s19-7.8,23.1-3.4c4.1,4.4,15.9,0.9,22.2,3.7s23.7,4.4,37.1-3.7s23.1-6.9,34.9-4.7
			c11.9,2.2,18.7-5.3,30.3-14.4s16.5-31.2,15.6-39.9C399,323,392.9,312.6,382.2,316.5z"/>
		<linearGradient id="XMLID_29_" gradientUnits="userSpaceOnUse" x1="269.0045" y1="402.9008" x2="116.5833" y2="389.1338">
			<stop  offset="0" style="stop-color:#DEF1ED"/>
			<stop  offset="1" style="stop-color:#E6F1F2;stop-opacity:0"/>
		</linearGradient>
		<path id="XMLID_330_" fill="url(#XMLID_29_)" d="M254.4,395.6c-5.5-1.2-7.3,2.8-4.7,7s11.9,7.5,19,4.7s7-6.3,3.7-8.7
			S259.5,396.8,254.4,395.6z"/>
		<linearGradient id="XMLID_38_" gradientUnits="userSpaceOnUse" x1="278.1439" y1="301.7151" x2="125.7226" y2="287.948">
			<stop  offset="0" style="stop-color:#DEF1ED"/>
			<stop  offset="1" style="stop-color:#E6F1F2;stop-opacity:0"/>
		</linearGradient>
		<path id="XMLID_329_" fill="url(#XMLID_38_)" d="M249.9,292.1c-4.1,2.1-2.1,7.5,0.9,12.6s11,2.3,10.3-3.7S254.4,289.8,249.9,292.1
			z"/>
	</g>
</g>
<g id="SMOKE_EFFECT_1">
	<g id="XMLID_99_">
		<linearGradient id="XMLID_39_" gradientUnits="userSpaceOnUse" x1="301.3664" y1="408.7638" x2="272.1933" y2="491.0385">
			<stop  offset="7.179487e-002" style="stop-color:#F6CA5C"/>
			<stop  offset="1" style="stop-color:#FFF5D4;stop-opacity:0.8"/>
		</linearGradient>
		<path id="XMLID_104_" fill="url(#XMLID_39_)" d="M288.1,430.9c-4.4,5.6-6.4,17.6,1.3,21.2S295.5,421.5,288.1,430.9z"/>
		<linearGradient id="XMLID_40_" gradientUnits="userSpaceOnUse" x1="294.0544" y1="406.1711" x2="264.8813" y2="488.4458">
			<stop  offset="7.179487e-002" style="stop-color:#F6CA5C"/>
			<stop  offset="1" style="stop-color:#FFF5D4;stop-opacity:0.8"/>
		</linearGradient>
		<path id="XMLID_103_" fill="url(#XMLID_40_)" d="M275.2,457.5c-4.3,2.5-9.1,11-4.6,14.9C275,476.3,281.9,453.5,275.2,457.5z"/>
		<linearGradient id="XMLID_41_" gradientUnits="userSpaceOnUse" x1="297.5144" y1="407.398" x2="268.3413" y2="489.6727">
			<stop  offset="7.179487e-002" style="stop-color:#F6CA5C"/>
			<stop  offset="1" style="stop-color:#FFF5D4;stop-opacity:0.8"/>
		</linearGradient>
		<path id="XMLID_102_" fill="url(#XMLID_41_)" d="M270.2,485.3c-2.2,1.2-6.8,5.9-4.2,7.3C270.8,495.1,273.6,483.4,270.2,485.3z"/>
		<linearGradient id="XMLID_42_" gradientUnits="userSpaceOnUse" x1="313.2512" y1="412.978" x2="284.0781" y2="495.2527">
			<stop  offset="7.179487e-002" style="stop-color:#F6CA5C"/>
			<stop  offset="1" style="stop-color:#FFF5D4;stop-opacity:0.8"/>
		</linearGradient>
		<path id="XMLID_101_" fill="url(#XMLID_42_)" d="M286.6,477c-1.8,3.4-3.8,13.3,0.7,12.9C295.6,489.1,289.5,471.7,286.6,477z"/>
		<linearGradient id="XMLID_43_" gradientUnits="userSpaceOnUse" x1="314.0883" y1="413.2748" x2="284.9153" y2="495.5495">
			<stop  offset="7.179487e-002" style="stop-color:#F6CA5C"/>
			<stop  offset="1" style="stop-color:#FFF5D4;stop-opacity:0.8"/>
		</linearGradient>
		<path id="XMLID_100_" fill="url(#XMLID_43_)" d="M295.8,460c-0.8,1.5-1.7,5.8,0.3,5.6C299.7,465.3,297,457.7,295.8,460z"/>
	</g>
</g>
<g id="SMOKE_EFFECT_2">
	<g id="XMLID_652_">
		
			<linearGradient id="XMLID_44_" gradientUnits="userSpaceOnUse" x1="380.9491" y1="439.9453" x2="362.2346" y2="492.7244" gradientTransform="matrix(-1 0 0 1 728.4719 0)">
			<stop  offset="7.179487e-002" style="stop-color:#F6CA5C"/>
			<stop  offset="1" style="stop-color:#FFF5D4;stop-opacity:0.8"/>
		</linearGradient>
		<path id="XMLID_657_" fill="url(#XMLID_44_)" d="M356.1,454.1c2.8,3.6,4.1,11.3-0.9,13.6S351.3,448.1,356.1,454.1z"/>
		
			<linearGradient id="XMLID_45_" gradientUnits="userSpaceOnUse" x1="374.5492" y1="428.5973" x2="348.87" y2="501.0186" gradientTransform="matrix(-1 0 0 1 728.4719 0)">
			<stop  offset="7.179487e-002" style="stop-color:#F6CA5C"/>
			<stop  offset="1" style="stop-color:#FFF5D4;stop-opacity:0.8"/>
		</linearGradient>
		<path id="XMLID_656_" fill="url(#XMLID_45_)" d="M370.6,473.7c3.8,2.2,8,9.7,4.1,13.2C370.7,490.3,364.6,470.3,370.6,473.7z"/>
		
			<linearGradient id="XMLID_46_" gradientUnits="userSpaceOnUse" x1="377.5949" y1="429.6772" x2="351.9156" y2="502.0985" gradientTransform="matrix(-1 0 0 1 728.4719 0)">
			<stop  offset="7.179487e-002" style="stop-color:#F6CA5C"/>
			<stop  offset="1" style="stop-color:#FFF5D4;stop-opacity:0.8"/>
		</linearGradient>
		<path id="XMLID_655_" fill="url(#XMLID_46_)" d="M374.9,498.3c1.9,1.1,6,5.2,3.7,6.4C374.4,506.9,371.9,496.6,374.9,498.3z"/>
		
			<linearGradient id="XMLID_47_" gradientUnits="userSpaceOnUse" x1="391.447" y1="434.5889" x2="365.7677" y2="507.0102" gradientTransform="matrix(-1 0 0 1 728.4719 0)">
			<stop  offset="7.179487e-002" style="stop-color:#F6CA5C"/>
			<stop  offset="1" style="stop-color:#FFF5D4;stop-opacity:0.8"/>
		</linearGradient>
		<path id="XMLID_654_" fill="url(#XMLID_47_)" d="M360.5,491c1.6,3,3.4,11.7-0.7,11.3C352.5,501.6,358,486.3,360.5,491z"/>
		
			<linearGradient id="XMLID_48_" gradientUnits="userSpaceOnUse" x1="392.1839" y1="434.8502" x2="366.5046" y2="507.2715" gradientTransform="matrix(-1 0 0 1 728.4719 0)">
			<stop  offset="7.179487e-002" style="stop-color:#F6CA5C"/>
			<stop  offset="1" style="stop-color:#FFF5D4;stop-opacity:0.8"/>
		</linearGradient>
		<path id="XMLID_653_" fill="url(#XMLID_48_)" d="M352.4,476c0.7,1.3,1.5,5.1-0.3,5C348.9,480.7,351.3,473.9,352.4,476z"/>
	</g>
</g>
<g id="SMOKE_EFFECT_3">
	<g id="XMLID_87_">
		
			<linearGradient id="XMLID_49_" gradientUnits="userSpaceOnUse" x1="382.6557" y1="392.7133" x2="367.633" y2="435.0808" gradientTransform="matrix(-1 0 0 1 728.4719 0)">
			<stop  offset="7.179487e-002" style="stop-color:#F6CA5C"/>
			<stop  offset="1" style="stop-color:#FFF5D4;stop-opacity:0.8"/>
		</linearGradient>
		<path id="XMLID_92_" fill="url(#XMLID_49_)" d="M352.7,404.1c2.3,2.9,3.3,9.1-0.7,10.9C348,416.8,348.9,399.3,352.7,404.1z"/>
		
			<linearGradient id="XMLID_50_" gradientUnits="userSpaceOnUse" x1="377.5183" y1="383.6039" x2="356.9048" y2="441.7388" gradientTransform="matrix(-1 0 0 1 728.4719 0)">
			<stop  offset="7.179487e-002" style="stop-color:#F6CA5C"/>
			<stop  offset="1" style="stop-color:#FFF5D4;stop-opacity:0.8"/>
		</linearGradient>
		<path id="XMLID_91_" fill="url(#XMLID_50_)" d="M364.3,419.8c3,1.8,6.4,7.8,3.3,10.6C364.4,433.2,359.6,417.1,364.3,419.8z"/>
		
			<linearGradient id="XMLID_51_" gradientUnits="userSpaceOnUse" x1="379.9632" y1="384.4708" x2="359.3496" y2="442.6057" gradientTransform="matrix(-1 0 0 1 728.4719 0)">
			<stop  offset="7.179487e-002" style="stop-color:#F6CA5C"/>
			<stop  offset="1" style="stop-color:#FFF5D4;stop-opacity:0.8"/>
		</linearGradient>
		<path id="XMLID_90_" fill="url(#XMLID_51_)" d="M367.8,439.5c1.6,0.8,4.8,4.2,2.9,5.1C367.4,446.4,365.4,438.2,367.8,439.5z"/>
		
			<linearGradient id="XMLID_52_" gradientUnits="userSpaceOnUse" x1="391.0827" y1="388.4135" x2="370.4691" y2="446.5484" gradientTransform="matrix(-1 0 0 1 728.4719 0)">
			<stop  offset="7.179487e-002" style="stop-color:#F6CA5C"/>
			<stop  offset="1" style="stop-color:#FFF5D4;stop-opacity:0.8"/>
		</linearGradient>
		<path id="XMLID_89_" fill="url(#XMLID_52_)" d="M356.2,433.7c1.3,2.4,2.7,9.4-0.5,9.1C349.8,442.2,354.2,429.9,356.2,433.7z"/>
		
			<linearGradient id="XMLID_53_" gradientUnits="userSpaceOnUse" x1="391.6743" y1="388.6233" x2="371.0607" y2="446.7582" gradientTransform="matrix(-1 0 0 1 728.4719 0)">
			<stop  offset="7.179487e-002" style="stop-color:#F6CA5C"/>
			<stop  offset="1" style="stop-color:#FFF5D4;stop-opacity:0.8"/>
		</linearGradient>
		<path id="XMLID_88_" fill="url(#XMLID_53_)" d="M349.7,421.7c0.6,1.1,1.2,4.1-0.2,4C346.9,425.4,348.8,420,349.7,421.7z"/>
	</g>
</g>
<g id="ROCKET_2">
	<linearGradient id="XMLID_54_" gradientUnits="userSpaceOnUse" x1="323.2069" y1="374.1711" x2="323.2069" y2="341.4161">
		<stop  offset="9.139785e-002" style="stop-color:#1B234E"/>
		<stop  offset="1" style="stop-color:#0C5475"/>
	</linearGradient>
	<path id="XMLID_177_" fill="url(#XMLID_54_)" d="M373.8,377.3c0.1,4.1-22.9,6.7-50.8,6.7c-27.9,0-50.6-3.3-50.5-7.4
		c0.1-4,22.9-10.8,50.5-10.8S373.7,373.3,373.8,377.3z"/>
</g>
<g id="ROCKET_FIRE">
	<g id="XMLID_79_">
		<linearGradient id="XMLID_55_" gradientUnits="userSpaceOnUse" x1="322.7874" y1="375.8882" x2="322.7874" y2="555.4334">
			<stop  offset="6.641852e-002" style="stop-color:#F6CA5C"/>
			<stop  offset="1" style="stop-color:#FFF5D4;stop-opacity:0.8"/>
		</linearGradient>
		<path id="XMLID_85_" fill="url(#XMLID_55_)" d="M355.6,358.3c0,0-2.4,7.5-5.5,20.4c-2.7,11.3-6,26.7-8.6,44.9
			c-1.3,8.7-2.4,18.1-3.2,27.9c-0.3,4-0.6,8.1-0.9,12.2c0,0.5-0.1,1-0.1,1.6c-0.3,4.8-0.5,9.9-0.8,15.1c-1.7,33.3-3.2,71.3-3.2,71.3
			h-17.2c0,0-2.4-36.5-4.7-60.2c-0.3-3-0.6-6.1-1-9.1c-1-9-2.2-18.2-3.4-27.3c-2.5-17.8-5.3-35.2-7.9-50.2c-1.1-6.1-2.1-11.8-3.1-17
			c-3.4-18.1-5.8-29.9-5.8-29.9c12.1-4.5,23.9-5.7,34.2-5.4C342.5,353,355.6,358.3,355.6,358.3z"/>
		<linearGradient id="XMLID_56_" gradientUnits="userSpaceOnUse" x1="322.7874" y1="350.3208" x2="322.7874" y2="516.2274">
			<stop  offset="6.641852e-002" style="stop-color:#F6CA5C"/>
			<stop  offset="1" style="stop-color:#FFF5D4;stop-opacity:0.8"/>
		</linearGradient>
		<path id="XMLID_84_" fill="url(#XMLID_56_)" d="M355.6,358.3c0,0-2.4,7.5-5.5,20.4c-2.7,11.3-6,26.7-8.6,44.9
			c-0.7,0.1-1.3,0-2.1-0.4c-3.9-2.2-0.1-23.6-2.3-25c-2.2-1.4-3.4,0.6-4.2,10.6c-0.8,10-1.9,21.1-3.4,20.9c-1.6-0.2-1.9-3.4-3.3-4.2
			c-1.4-0.8-3.6,2.5-4.1,12.3c-0.5,9.8-0.9,18.7-3.9,16.1c-3-2.6-4.5-27.1-8-25.9c-3.4,1.2-1.4,17.2-1.7,23.2
			c-0.1,2.2-0.8,3.3-1.6,3.8c-2.5-17.8-5.3-35.2-7.9-50.2c-1.1-6.1-2.1-11.8-3.1-17c-3.4-18.1-5.8-29.9-5.8-29.9
			c12.1-4.5,23.9-5.7,34.2-5.4C342.5,353,355.6,358.3,355.6,358.3z"/>
		<linearGradient id="XMLID_57_" gradientUnits="userSpaceOnUse" x1="322.7874" y1="356.7126" x2="322.7874" y2="459.4753">
			<stop  offset="6.641852e-002" style="stop-color:#F6CA5C"/>
			<stop  offset="1" style="stop-color:#FFF5D4;stop-opacity:0.8"/>
		</linearGradient>
		<path id="XMLID_83_" fill="url(#XMLID_57_)" d="M355.6,358.3c0,0-2.4,7.5-5.5,20.4c-1.7-0.6-3.5-0.9-4.7-0.6
			c-3.3,0.7-1.9,12.6-7.3,13.1c-5.4,0.5-4-21.3-8.2-20.8s-3.5,35.1-7,35.1s-2.1-6.8-6.1-5.6c-4,1.2,0.9,17.3-5.6,17.1
			c-6.6-0.2-4.7-15-8.9-14.7c-1.3,0.1-2.4,1.2-3.3,2.8c-1.1-6.1-2.1-11.8-3.1-17c-3.4-18.1-5.8-29.9-5.8-29.9
			c12.1-4.5,23.9-5.7,34.2-5.4C342.5,353,355.6,358.3,355.6,358.3z"/>
		<linearGradient id="XMLID_58_" gradientUnits="userSpaceOnUse" x1="323.7563" y1="589.7697" x2="323.7563" y2="529.7825">
			<stop  offset="6.641852e-002" style="stop-color:#F6CA5C"/>
			<stop  offset="1" style="stop-color:#FFF5D4;stop-opacity:0.8"/>
		</linearGradient>
		<path id="XMLID_82_" fill="url(#XMLID_58_)" d="M337.2,463.8c0,0.5-0.1,1-0.1,1.6c-2,35.6-4.1,86.4-4.1,86.4h-17.2
			c0,0-2.4-36.5-4.7-60.2c-0.3-3-0.6-6.1-1-9.1c1.2-2.5,2.5-4.5,3.7-4.9c3.5-1.2,2.6,21.8,6.8,22s0.7-24.6,4.4-25s1.9,7,4.2,7.3
			s1.4-19,4.7-19.2C335.4,462.4,336.4,462.9,337.2,463.8z"/>
		<linearGradient id="XMLID_59_" gradientUnits="userSpaceOnUse" x1="330.9496" y1="431.9399" x2="330.9496" y2="502.9875">
			<stop  offset="6.641852e-002" style="stop-color:#F6CA5C"/>
			<stop  offset="1" style="stop-color:#FFF5D4;stop-opacity:0.8"/>
		</linearGradient>
		<path id="XMLID_81_" fill="url(#XMLID_59_)" d="M338.1,451.5c-0.3,4-0.6,8.1-0.9,12.2c0,0.5-0.1,1-0.1,1.6
			c-0.3,4.8-0.5,9.9-0.8,15.1c-0.9,0.5-1.7,0.7-2.5,0.6c-4-0.7-2.1-13.6-2.8-16.9c-0.7-3.3-4.2,4-5.6,4s-2.8-19.7-0.2-20.6
			s1.6,3.5,2.8,4.9s3.3-2.3,3.5-8c0.2-5.6,2.6-9.4,4.4-7.5S335,451.1,338.1,451.5C338.1,451.5,338.1,451.5,338.1,451.5z"/>
		<linearGradient id="XMLID_60_" gradientUnits="userSpaceOnUse" x1="307.103" y1="352.7792" x2="307.103" y2="413.7794">
			<stop  offset="6.641852e-002" style="stop-color:#F6CA5C"/>
			<stop  offset="1" style="stop-color:#FFF5D4;stop-opacity:0.8"/>
		</linearGradient>
		<path id="XMLID_80_" fill="url(#XMLID_60_)" d="M323.1,372.2c-1.6,9.4-4.7,6.8-8.4,7.3c-3.7,0.5-1.9,13.8-6.8,12.9
			s-2.6-6.6-8.2-6.3c-1.4,0.1-2.7,0.8-3.8,1.9c-3.4-18.1-5.8-29.9-5.8-29.9c12.1-4.5,23.9-5.7,34.2-5.4
			C324.2,358.1,324.1,366.4,323.1,372.2z"/>
	</g>
</g>
<g id="ROCKET_1">
	<g id="XMLID_198_">
		<linearGradient id="XMLID_61_" gradientUnits="userSpaceOnUse" x1="321.29" y1="409.9789" x2="321.29" y2="117.9676">
			<stop  offset="0" style="stop-color:#A7545C"/>
			<stop  offset="0.871" style="stop-color:#F1655F"/>
		</linearGradient>
		<path id="XMLID_189_" fill="url(#XMLID_61_)" d="M381.5,328.8l-11.9,19.1c0,0-20.4-7.9-47.2-7.9H322c-26.6,0.1-46.1,8.1-46.1,8.1
			s-12.7-14.8-14.5-19.9c-1.8-5.1-5.2-109.6,7.8-183.2c1.6-9.4,3.8-18.3,6.4-26.6c0.5-1.5,0.9-3,1.5-4.5c0.2-0.6,0.4-1.3,0.6-1.9
			c16.7-49.5,45.8-80.3,45.8-80.3s24,27.1,40.6,77.9c0.3,0.9,0.6,1.9,0.9,2.8c0.5,1.5,1,3.1,1.5,4.7c6.5,22,11.7,48.4,13.2,79.1
			C385.8,318.3,381.5,328.8,381.5,328.8z"/>
		<linearGradient id="XMLID_62_" gradientUnits="userSpaceOnUse" x1="361.1776" y1="291.1186" x2="366.0944" y2="142.1391">
			<stop  offset="0" style="stop-color:#F1645F"/>
			<stop  offset="0.871" style="stop-color:#F79A6E"/>
		</linearGradient>
		<path id="XMLID_541_" fill="url(#XMLID_62_)" d="M349.9,115.3c0,0,8.9,67,9.6,125.4s0,78.9,0,78.9l16.7,5.3c0,0,5-56.4,1.2-120.8
			c-3.9-65.4-12-84.8-12-84.8s-2.6-1.2-6.9-2.2C354.2,116,349.9,115.3,349.9,115.3z"/>
		<g id="XMLID_196_">
			<linearGradient id="XMLID_63_" gradientUnits="userSpaceOnUse" x1="346.627" y1="212.5918" x2="355.3422" y2="163.8578">
				<stop  offset="0" style="stop-color:#A7545C"/>
				<stop  offset="0.871" style="stop-color:#F1655F"/>
			</linearGradient>
			<path id="XMLID_518_" fill="url(#XMLID_63_)" d="M348.3,160.5c-9.8,0-18.4,6.1-23.8,15.6c-0.5,0.8-0.9,1.7-1.4,2.6
				c-2.7,5.8-4.3,12.7-4.4,20.1c0,21.9,13.7,40.1,30.7,40.1c9.9,0,18.6-6.3,23.9-15.9c3.7-6.8,5.8-15.2,5.5-24.2
				C378.3,177.4,364.6,160.5,348.3,160.5z M367.9,218.1c-3.8,4.8-9.1,7.8-14.9,7.8c-12.3,0-22.4-13.1-22.5-29.1
				c0-3.7,0.5-7.2,1.4-10.4c3.1-10.5,10.9-17.8,20-17.8c11.9,0,22,12.5,22.5,28.1C374.7,205.2,372.2,212.8,367.9,218.1z"/>
			<linearGradient id="XMLID_64_" gradientUnits="userSpaceOnUse" x1="357.6466" y1="151.6528" x2="343.308" y2="226.5324">
				<stop  offset="9.139785e-002" style="stop-color:#1B234E"/>
				<stop  offset="1" style="stop-color:#0C5475"/>
			</linearGradient>
			<path id="XMLID_201_" fill="url(#XMLID_64_)" d="M348.6,156.6c-9.8,0-18.4,6.1-23.7,15.5c-0.5,0.8-0.9,1.7-1.4,2.6
				c-2.7,5.8-4.3,12.6-4.3,20c0,21.8,13.7,39.9,30.6,39.9c9.9,0,18.6-6.2,23.9-15.8c3.7-6.7,5.8-15.1,5.5-24.1
				C378.5,173.4,364.8,156.6,348.6,156.6z M368.2,213.9c-3.8,4.8-9.1,7.7-14.9,7.7c-12.3,0-22.3-13.1-22.4-28.9
				c0-3.7,0.5-7.1,1.4-10.3c3.1-10.4,10.8-17.7,20-17.7c11.9,0,21.9,12.4,22.4,28C374.9,201,372.4,208.6,368.2,213.9z"/>
			<linearGradient id="XMLID_65_" gradientUnits="userSpaceOnUse" x1="350.8457" y1="187.1297" x2="339.0513" y2="231.2697">
				<stop  offset="9.139785e-002" style="stop-color:#1B234E"/>
				<stop  offset="1" style="stop-color:#0C5475"/>
			</linearGradient>
			<path id="XMLID_204_" fill="url(#XMLID_65_)" d="M373.7,218.8c-2.3,4.1-5.1,7.6-8.5,10.2c-4.5,3.6-9.7,5.6-15.4,5.6
				c-16.9,0-30.6-18.1-30.6-39.9c0-3.2,0.3-6.3,0.9-9.3c0.7-3.9,1.9-7.5,3.5-10.8l8.8,7.7l35.8,31.5L373.7,218.8z"/>
			<linearGradient id="XMLID_66_" gradientUnits="userSpaceOnUse" x1="338.3006" y1="236.2553" x2="349.1058" y2="164.2209">
				<stop  offset="9.139785e-002" style="stop-color:#1B234E"/>
				<stop  offset="1" style="stop-color:#0C5475"/>
			</linearGradient>
			<path id="XMLID_197_" fill="url(#XMLID_66_)" d="M365.2,229c-4.5,3.6-9.7,5.6-15.4,5.6c-16.9,0-30.6-18.1-30.6-39.9
				c0-3.2,0.3-6.3,0.9-9.3L365.2,229z"/>
			<linearGradient id="XMLID_67_" gradientUnits="userSpaceOnUse" x1="356.0794" y1="149.8972" x2="350.7751" y2="219.9146">
				<stop  offset="0" style="stop-color:#A6DDEA"/>
				<stop  offset="1" style="stop-color:#29C1DB"/>
			</linearGradient>
			<path id="XMLID_669_" fill="url(#XMLID_67_)" d="M375.9,192.7c0.4,12.5-5.1,23.3-13.4,28c-2.4,1.4-4.9,2.2-7.7,2.4
				c-0.5,0-1,0.1-1.5,0.1c-2.9,0-5.6-0.7-8.2-1.9c-1.7-0.8-3.3-1.9-4.8-3.2c-6.4-5.5-10.6-14.9-10.6-25.4
				c-0.1-16.4,10-29.5,22.6-29.5h0.3c1.9,0,3.8,0.4,5.6,1c4.3,1.5,8.2,4.5,11.2,8.7c1.4,2,2.7,4.2,3.6,6.6
				C374.7,183.4,375.7,187.9,375.9,192.7z"/>
			<linearGradient id="XMLID_68_" gradientUnits="userSpaceOnUse" x1="351.4898" y1="209.1695" x2="352.1833" y2="177.9584">
				<stop  offset="9.139785e-002" style="stop-color:#143A5F"/>
				<stop  offset="1" style="stop-color:#00778A"/>
			</linearGradient>
			<path id="XMLID_205_" fill="url(#XMLID_68_)" d="M379.2,194.7c-0.6-7.7-5.3-28.3-22.1-34.2c-13-4.5-19.6,4.3-21,6
				c0.4-0.5,2.1-3.6,3.5-4.9c3-2.9,2.3-3.4-2-0.8c-4.6,2.8-10.3,8.5-12.6,11.2c5.3-9.4,13.9-15.5,23.7-15.5
				C364.8,156.6,378.5,173.4,379.2,194.7z"/>
			<linearGradient id="XMLID_69_" gradientUnits="userSpaceOnUse" x1="367.0087" y1="157.6092" x2="338.2806" y2="229.4294">
				<stop  offset="0" style="stop-color:#A6DDEA"/>
				<stop  offset="1" style="stop-color:#29C1DB"/>
			</linearGradient>
			<path id="XMLID_178_" fill="url(#XMLID_69_)" d="M369.8,182.9c0.3,9.5-5.4,17.3-12.6,17.3s-13.2-7.8-13.3-17.3
				c-0.1-9.4,5.5-17,12.7-17C363.6,165.9,369.6,173.5,369.8,182.9z"/>
			<linearGradient id="XMLID_70_" gradientUnits="userSpaceOnUse" x1="359.9972" y1="179.6948" x2="346.4406" y2="227.9251">
				<stop  offset="0" style="stop-color:#A6DDEA"/>
				<stop  offset="1" style="stop-color:#29C1DB"/>
			</linearGradient>
			<path id="XMLID_182_" fill="url(#XMLID_70_)" d="M367.7,180.8c0.2,5.8-3.3,10.6-7.8,10.6c-4.5,0-8.2-4.8-8.3-10.6
				c-0.1-5.8,3.4-10.5,7.8-10.5C363.8,170.4,367.6,175,367.7,180.8z"/>
			<g id="XMLID_187_">
				<path id="XMLID_181_" fill="#1BBBD1" d="M363.9,205h-18.3c-0.5,0-1-0.4-1-0.9l0-0.1c0-0.5,0.4-0.9,1-0.9h18.3c0.5,0,1,0.4,1,0.9
					l0,0.1C364.8,204.6,364.4,205,363.9,205z"/>
				<path id="XMLID_190_" fill="#1BBBD1" d="M364,209.6h-18.3c-0.5,0-1-0.4-1-0.9l0-0.1c0-0.5,0.4-0.9,1-0.9h18.3c0.5,0,1,0.4,1,0.9
					l0,0.1C364.9,209.2,364.5,209.6,364,209.6z"/>
				<path id="XMLID_194_" fill="#1BBBD1" d="M364.1,214.3h-18.4c-0.5,0-1-0.4-1-0.9l0-0.1c0-0.5,0.4-0.9,1-0.9H364
					c0.5,0,1,0.4,1,0.9l0,0.1C365.1,213.9,364.6,214.3,364.1,214.3z"/>
			</g>
			<linearGradient id="XMLID_71_" gradientUnits="userSpaceOnUse" x1="344.0872" y1="216.8861" x2="357.5206" y2="167.0607">
				<stop  offset="0" style="stop-color:#A6DDEA;stop-opacity:0.3"/>
				<stop  offset="1" style="stop-color:#FFFCE4"/>
			</linearGradient>
			<path id="XMLID_663_" fill="url(#XMLID_71_)" d="M363.4,179.7l-18.3,41.6c-1.7-0.8-3.3-1.9-4.8-3.2l12.5-29.6l-10.8,1.3
				l10.5-26.5c1.9,0,3.8,0.4,5.6,1l-6.6,16.2L363.4,179.7z"/>
			<linearGradient id="XMLID_72_" gradientUnits="userSpaceOnUse" x1="358.8279" y1="220.5962" x2="372.3524" y2="170.4328">
				<stop  offset="0" style="stop-color:#A6DDEA;stop-opacity:0.3"/>
				<stop  offset="1" style="stop-color:#FFFCE4"/>
			</linearGradient>
			<path id="XMLID_662_" fill="url(#XMLID_72_)" d="M364.1,202.2l6.3,0.1l-7.9,18.4c-2.4,1.4-4.9,2.2-7.7,2.4l4.9-11.9l-5.2,0.5
				l14.9-38.9c1.4,2,2.7,4.2,3.6,6.6L364.1,202.2z"/>
		</g>
		<linearGradient id="XMLID_73_" gradientUnits="userSpaceOnUse" x1="321.4543" y1="349.243" x2="321.4543" y2="287.4205">
			<stop  offset="9.139785e-002" style="stop-color:#1B234E"/>
			<stop  offset="1" style="stop-color:#0C5475"/>
		</linearGradient>
		<path id="XMLID_193_" fill="url(#XMLID_73_)" d="M381.5,328.8l-11.9,19.1c0,0-20.4-7.9-47.2-7.9c-4.8,0-9.4,0.3-13.6,0.7
			c-9.9,1-18.2,2.9-24,4.5c-5.7,1.6-8.9,2.9-8.9,2.9s-12.7-14.8-14.5-19.9c0,0,5.1-2.3,13.9-4.8c6.4-1.8,14.6-3.8,24.3-5.2
			c7.2-1,15.2-1.7,23.7-1.7C358.8,316.5,381.5,328.8,381.5,328.8z"/>
		<linearGradient id="XMLID_74_" gradientUnits="userSpaceOnUse" x1="265.1331" y1="347.6923" x2="351.8395" y2="-25.1455">
			<stop  offset="0" style="stop-color:#A7545C"/>
			<stop  offset="0.871" style="stop-color:#F1655F"/>
		</linearGradient>
		<path id="XMLID_537_" fill="url(#XMLID_74_)" d="M316.3,128.2c-4.4,88-0.7,186.6-0.6,188.5c-5.7,0.3-11.2,0.8-16.2,1.5
			c-9.6,1.4-17.9,3.3-24.3,5.2c-8.8,2.5-13.9,4.8-13.9,4.8c-1.8-5.1-5.2-109.6,7.8-183.2c1.6-9.4,3.8-18.3,6.4-26.6
			c0.5-1.5,1-3,1.5-4.5c0.2-0.6,0.4-1.2,0.6-1.9c16.7-49.5,45.8-80.3,45.8-80.3S319.7,62.1,316.3,128.2z"/>
		<linearGradient id="XMLID_75_" gradientUnits="userSpaceOnUse" x1="280.8357" y1="242.6775" x2="390.0051" y2="-31.9845">
			<stop  offset="0" style="stop-color:#A7545C"/>
			<stop  offset="0.871" style="stop-color:#F1655F"/>
		</linearGradient>
		<path id="XMLID_3_" fill="url(#XMLID_75_)" d="M299.5,318c0,0-4.6-71.5,1.1-159.1c5.3-82.3,22.9-127.3,22.9-127.3
			s-28.5,36.4-35.6,80.7c-12.6,78.3-12.3,210.9-12.3,210.9s3.9-1,11.7-3C292.5,319,299.5,318,299.5,318z"/>
		<linearGradient id="XMLID_76_" gradientUnits="userSpaceOnUse" x1="323.2759" y1="306.2133" x2="323.2759" y2="352.1505">
			<stop  offset="9.139785e-002" style="stop-color:#1B234E"/>
			<stop  offset="1" style="stop-color:#0C5475"/>
		</linearGradient>
		<path id="XMLID_195_" fill="url(#XMLID_76_)" d="M377.1,372.4c0,0-14.9-12.6-52.8-12.6c-2,0-3.9,0-5.7,0.1
			c-5.1,0.2-9.8,0.5-14.1,1c-10.3,1.2-18.2,3.2-23.9,5.2c-7.6,2.6-11.2,5-11.2,5l6.5-23.2c0,0,3.3-1.3,8.8-2.8
			c5.9-1.6,14.3-3.6,24-4.7c4.2-0.5,8.7-0.8,13.2-0.8c0.4,0,0.9,0,1.3,0c25.6,0,46.2,8.1,46.2,8.1L377.1,372.4z"/>
		<linearGradient id="XMLID_77_" gradientUnits="userSpaceOnUse" x1="269.4237" y1="355.2661" x2="322.0355" y2="355.2661">
			<stop  offset="9.139785e-002" style="stop-color:#1B234E"/>
			<stop  offset="1" style="stop-color:#0C5475"/>
		</linearGradient>
		<path id="XMLID_192_" fill="url(#XMLID_77_)" d="M322,339.5l0,0.1l-3.3,20.2c-33.9,1-49.2,11.2-49.2,11.2l6.5-23.2
			C275.9,347.8,297,339.8,322,339.5z"/>
		<linearGradient id="XMLID_78_" gradientUnits="userSpaceOnUse" x1="321.0294" y1="98.2652" x2="321.0294" y2="71.57">
			<stop  offset="0" style="stop-color:#FBB416"/>
			<stop  offset="1" style="stop-color:#D66727"/>
		</linearGradient>
		<path id="XMLID_183_" fill="url(#XMLID_78_)" d="M366.5,117.1c-9.3-3.6-23.8-7.3-44.5-7.3c-21.6,0-37,4.5-46.4,8.5
			c0.7-2.2,1.3-4.3,2.1-6.4c9.9-3.9,25.4-8.1,45.9-8.1c17.1,0,30.9,2.8,40.5,5.7C364.9,112,365.7,114.5,366.5,117.1z"/>
		<linearGradient id="XMLID_86_" gradientUnits="userSpaceOnUse" x1="319.1707" y1="127.6343" x2="328.7712" y2="52.6881">
			<stop  offset="9.139785e-002" style="stop-color:#1B234E"/>
			<stop  offset="1" style="stop-color:#0C5475"/>
		</linearGradient>
		<path id="XMLID_191_" fill="url(#XMLID_86_)" d="M365,112.4c-9.6-2.6-24.4-5.8-39.5-5.8c-2.6,0-5.3,0.1-8,0.3
			c-15.4,1-31.2,4.6-40.4,6.9c0.2-0.6,0.4-1.3,0.6-1.9c16.7-49.5,45.8-80.3,45.8-80.3s24,27.1,40.6,77.9
			C364.4,110.5,364.7,111.5,365,112.4z"/>
		<linearGradient id="XMLID_93_" gradientUnits="userSpaceOnUse" x1="341.6658" y1="137.564" x2="343.0296" y2="76.1901">
			<stop  offset="9.139785e-002" style="stop-color:#143A5F"/>
			<stop  offset="1" style="stop-color:#00778A"/>
		</linearGradient>
		<path id="XMLID_540_" fill="url(#XMLID_93_)" d="M324.3,33.8c0,0,14.1,18.8,24.1,39.7s13.6,34.9,13.6,34.9l-13.6-3.9
			c0,0-0.8-9.8-9-34.4C331.2,45.5,324.3,33.8,324.3,33.8z"/>
		<linearGradient id="XMLID_94_" gradientUnits="userSpaceOnUse" x1="287.2107" y1="132.5127" x2="337.448" y2="16.025">
			<stop  offset="9.139785e-002" style="stop-color:#1B234E"/>
			<stop  offset="1" style="stop-color:#0C5475"/>
		</linearGradient>
		<path id="XMLID_188_" fill="url(#XMLID_94_)" d="M323.5,31.7c0,0-3,23.9-6,75.2c-15.4,1-31.2,4.6-40.4,6.9
			c0.2-0.6,0.4-1.3,0.6-1.9C294.4,62.5,323.5,31.7,323.5,31.7z"/>
		<linearGradient id="XMLID_95_" gradientUnits="userSpaceOnUse" x1="326.0411" y1="246.4881" x2="454.6376" y2="-77.0509">
			<stop  offset="9.139785e-002" style="stop-color:#1B234E"/>
			<stop  offset="1" style="stop-color:#0C5475"/>
		</linearGradient>
		<path id="XMLID_184_" fill="url(#XMLID_95_)" d="M308.8,340.7c-9.9,1-18.2,2.9-24,4.5l-9.5-21.8c6.4-1.8,14.6-3.8,24.3-5.2
			C301.9,324,306.5,335.2,308.8,340.7z"/>
		<linearGradient id="XMLID_96_" gradientUnits="userSpaceOnUse" x1="232.9291" y1="392.6096" x2="288.3935" y2="356.954">
			<stop  offset="9.139785e-002" style="stop-color:#1B234E"/>
			<stop  offset="1" style="stop-color:#0C5475"/>
		</linearGradient>
		<path id="XMLID_186_" fill="url(#XMLID_96_)" d="M308.8,340.4c0,0-1.7,6.5-3.3,14.5c-0.4,2.2-0.8,4.2-1,6
			c-10.3,1.2-18.2,3.2-23.9,5.2c0.9-5,2.1-11.3,2.7-14.6c0.8-4.6,1.3-6,1.4-6.4C290.7,343.4,299.1,341.4,308.8,340.4z"/>
		<linearGradient id="XMLID_97_" gradientUnits="userSpaceOnUse" x1="255.7486" y1="353.9471" x2="236.9212" y2="274.7151">
			<stop  offset="9.139785e-002" style="stop-color:#1B234E"/>
			<stop  offset="1" style="stop-color:#0C5475"/>
		</linearGradient>
		<path id="XMLID_628_" fill="url(#XMLID_97_)" d="M264,322.7c0,0-12.3,5.7-23.1,18.4c-11,12.9-14.7,22-14.7,22s-0.5-19.4,1.9-40.3
			c1.4-12.1,3.7-24.7,7.6-34.5c11.5-28.6,27.4-37,27.4-37l0.4,30.3L264,322.7z"/>
		<linearGradient id="XMLID_98_" gradientUnits="userSpaceOnUse" x1="241.4804" y1="290.3493" x2="252.7632" y2="397.5353">
			<stop  offset="9.139785e-002" style="stop-color:#1B234E"/>
			<stop  offset="1" style="stop-color:#0C5475"/>
		</linearGradient>
		<path id="XMLID_626_" fill="url(#XMLID_98_)" d="M264,322.7c0,0-12.3,5.7-23.1,18.4c-11,12.9-14.7,22-14.7,22s-0.5-19.4,1.9-40.3
			c0.7-1.7,1.5-3.4,2.3-4.9c11.4-22.1,26.3-32.5,33.1-36.3L264,322.7z"/>
		
			<linearGradient id="XMLID_105_" gradientUnits="userSpaceOnUse" x1="448.8999" y1="353.9471" x2="430.0725" y2="274.7151" gradientTransform="matrix(-1 0 0 1 836.2185 0)">
			<stop  offset="9.139785e-002" style="stop-color:#1B234E"/>
			<stop  offset="1" style="stop-color:#0C5475"/>
		</linearGradient>
		<path id="XMLID_620_" fill="url(#XMLID_105_)" d="M379.1,322.7c0,0,12.3,5.7,23.1,18.4c11,12.9,14.7,22,14.7,22s0.5-19.4-1.9-40.3
			c-1.4-12.1-3.7-24.7-7.6-34.5c-11.5-28.6-27.4-37-27.4-37l-0.4,30.3L379.1,322.7z"/>
		
			<linearGradient id="XMLID_106_" gradientUnits="userSpaceOnUse" x1="434.6317" y1="290.3493" x2="445.9145" y2="397.5353" gradientTransform="matrix(-1 0 0 1 836.2185 0)">
			<stop  offset="9.139785e-002" style="stop-color:#1B234E"/>
			<stop  offset="1" style="stop-color:#0C5475"/>
		</linearGradient>
		<path id="XMLID_251_" fill="url(#XMLID_106_)" d="M379.1,322.7c0,0,12.3,5.7,23.1,18.4c11,12.9,14.7,22,14.7,22s0.5-19.4-1.9-40.3
			c-0.7-1.7-1.5-3.4-2.3-4.9c-11.4-22.1-26.3-32.5-33.1-36.3L379.1,322.7z"/>
		<g id="XMLID_621_">
			<linearGradient id="XMLID_107_" gradientUnits="userSpaceOnUse" x1="262.2681" y1="368.5334" x2="377.9004" y2="368.5334">
				<stop  offset="0" style="stop-color:#1B234E"/>
				<stop  offset="0.1505" style="stop-color:#F7CD64"/>
				<stop  offset="0.871" style="stop-color:#F7CD64"/>
				<stop  offset="1" style="stop-color:#1B234E"/>
			</linearGradient>
			<path id="XMLID_630_" fill="url(#XMLID_107_)" d="M377.6,373.9c0,1.5-1.4,2.9-4.1,4.3c0.2-0.3,0.4-0.6,0.3-0.9
				c-0.1-4-23.2-11.6-50.8-11.6c-27.6,0-50.4,6.8-50.5,10.8c0,0.2,0,0.4,0.2,0.6c-2.6-1.4-4-2.9-3.9-4.4c0.2-5.9,24.6-14,54.2-14
				S377.4,368,377.6,373.9z"/>
		</g>
	</g>
</g>
<g id="ORNAMENT_2">
	<g id="XMLID_30_">
		<linearGradient id="XMLID_108_" gradientUnits="userSpaceOnUse" x1="401.4417" y1="252.9717" x2="373.9076" y2="86.7833">
			<stop  offset="0" style="stop-color:#DEF1ED"/>
			<stop  offset="0.6761" style="stop-color:#E2F1EF;stop-opacity:0.3239"/>
			<stop  offset="1" style="stop-color:#E6F1F2;stop-opacity:0"/>
		</linearGradient>
		<path id="XMLID_37_" fill="url(#XMLID_108_)" d="M326,150.2c0,0,12.2,3.3,15.3,5.3c3.1,2,2.8,4.1,5.5,3.9c2.7-0.2,2.8-1.1,2.8-1.1
			s8,11.2,11.5,13.3c3.6,2,3.9-0.9,8.1,0.2c4.2,1.1,2.3,4.4,5.3,5.8s3.6,1.4,3.6,1.4s2.5,4.5,7.3,7.6s8.4,0.3,10.1,2
			c1.7,1.7,4.2,6.1,6.9,10.1c2.7,4.1,11.4,5.8,15.6,16.2c4.2,10.5,6.9,12,7.8,29.2s-2.2,17.8-3.1,22.2s2.5,5,2.5,5s-5.9,3.7-5,9
			s3.7,5,1.6,12.8c-2.2,7.8-13.7,10-18.1,17.2s-2.7,10-4.4,12.6c-1.7,2.7-3.3,3.7-3.3,3.7s4.4-6.6,2.8-11.7s2.5-10.9,6.1-13.7
			c3.6-2.8,9-5.8,8.7-13.3c-0.3-7.5-5.3-8.6-5.3-8.6s2.2,6.7-4.5,9.4c-6.7,2.7-14.5,8.6-15.9,15.1s-5.9,13.7-5.9,13.7
			s-8.7,20-5,34.9c3.7,15,16.4,13.1,24.8,2.8c8.4-10.3,11.7-17.6,14.5-15.7s3.3,9.4,8.7,8.9c5.4-0.5,12.4-11.5,13.1-19.9
			s1.6-18.3,6.8-20.8c5.1-2.6,8.9-0.2,12.4-7.3s7.7-23.9,3.2-42.6c-4.5-18.7-6.4-21.7-10.6-27.3c-4.2-5.6-4.8-10.5-2.2-14.2
			c2.7-3.7,1.2-12.3-6.2-20c-7.5-7.6-15.8-17.9-22.2-22.6c-6.4-4.7-9.8-3.1-9.8,0.5s-2,5.8-6.4,2.5c-4.4-3.3-10.9-9.7-15.9-12.5
			c-5-2.8-6.1,0.8-6.1,0.8s-9.8-8-14.5-9c-4.7-1.1-4.5,1.1-7.5-0.3C356.1,154.4,340.7,151.4,326,150.2z"/>
		<linearGradient id="XMLID_109_" gradientUnits="userSpaceOnUse" x1="421.1804" y1="249.7014" x2="393.6462" y2="83.513">
			<stop  offset="0" style="stop-color:#DEF1ED"/>
			<stop  offset="0.6761" style="stop-color:#E2F1EF;stop-opacity:0.3239"/>
			<stop  offset="1" style="stop-color:#E6F1F2;stop-opacity:0"/>
		</linearGradient>
		<path id="XMLID_36_" fill="url(#XMLID_109_)" d="M397.3,147.5c-2.6,1.2-5.1,7.8,1.9,10.8c7,3,10.5,3,13.7,4.1
			c3.3,1.1,4.8-0.6,3.4-4.2s-3.7-6.4-7.8-8.7C404.5,147,401,145.8,397.3,147.5z"/>
		<linearGradient id="XMLID_110_" gradientUnits="userSpaceOnUse" x1="412.6534" y1="251.1141" x2="385.1192" y2="84.9258">
			<stop  offset="0" style="stop-color:#DEF1ED"/>
			<stop  offset="0.6761" style="stop-color:#E2F1EF;stop-opacity:0.3239"/>
			<stop  offset="1" style="stop-color:#E6F1F2;stop-opacity:0"/>
		</linearGradient>
		<path id="XMLID_35_" fill="url(#XMLID_110_)" d="M415.4,251.4c-3-0.6-4.4,5.4-4.2,10.1s0.2,8.2-0.2,9.6s2.1,4,5.1-1.9
			C419.1,263.4,420.3,252.4,415.4,251.4z"/>
		<linearGradient id="XMLID_111_" gradientUnits="userSpaceOnUse" x1="459.5196" y1="243.3493" x2="431.9854" y2="77.161">
			<stop  offset="0" style="stop-color:#DEF1ED"/>
			<stop  offset="0.6761" style="stop-color:#E2F1EF;stop-opacity:0.3239"/>
			<stop  offset="1" style="stop-color:#E6F1F2;stop-opacity:0"/>
		</linearGradient>
		<path id="XMLID_34_" fill="url(#XMLID_111_)" d="M470.4,279.3c-3.6-1-1.2,3.3-3.7,9.6c-2.6,6.3-7.5,8.2-4.4,10.3
			s9.4-4.4,10.8-10.3C474.4,283,473,280,470.4,279.3z"/>
		<linearGradient id="XMLID_112_" gradientUnits="userSpaceOnUse" x1="439.9415" y1="246.593" x2="412.4073" y2="80.4047">
			<stop  offset="0" style="stop-color:#DEF1ED"/>
			<stop  offset="0.6761" style="stop-color:#E2F1EF;stop-opacity:0.3239"/>
			<stop  offset="1" style="stop-color:#E6F1F2;stop-opacity:0"/>
		</linearGradient>
		<path id="XMLID_33_" fill="url(#XMLID_112_)" d="M455,311.6c-2.8-0.4-9.4,12.6-9.4,19.4s5.1,5.1,10.8-2.6S461.3,312.5,455,311.6z"
			/>
		<linearGradient id="XMLID_113_" gradientUnits="userSpaceOnUse" x1="407.9262" y1="251.8973" x2="380.3921" y2="85.709">
			<stop  offset="0" style="stop-color:#DEF1ED"/>
			<stop  offset="0.6761" style="stop-color:#E2F1EF;stop-opacity:0.3239"/>
			<stop  offset="1" style="stop-color:#E6F1F2;stop-opacity:0"/>
		</linearGradient>
		<path id="XMLID_32_" fill="url(#XMLID_113_)" d="M430.8,366.3c-2.4-2.9-8.2,10.1-6.1,11.7C426.9,379.7,433.7,369.9,430.8,366.3z"
			/>
		<linearGradient id="XMLID_114_" gradientUnits="userSpaceOnUse" x1="386.6182" y1="255.4276" x2="359.0841" y2="89.2393">
			<stop  offset="0" style="stop-color:#DEF1ED"/>
			<stop  offset="0.6761" style="stop-color:#E2F1EF;stop-opacity:0.3239"/>
			<stop  offset="1" style="stop-color:#E6F1F2;stop-opacity:0"/>
		</linearGradient>
		<path id="XMLID_31_" fill="url(#XMLID_114_)" d="M416.3,351.6c-5.2-0.2-7.3,2.1-8.2,6.1s-5.9,10.5-11.9,13.6
			c-6.1,3-9.4,7.5-6.6,11.5s20.4,2.3,28.1-7.7C425.5,364.9,423.1,351.8,416.3,351.6z"/>
	</g>
</g>
<g id="ORNAMENT_3">
	<g id="XMLID_311_">
		<linearGradient id="XMLID_115_" gradientUnits="userSpaceOnUse" x1="399.3" y1="108.5926" x2="464.0249" y2="75.6522">
			<stop  offset="0" style="stop-color:#DEF1ED"/>
			<stop  offset="1" style="stop-color:#E6F1F2;stop-opacity:0"/>
		</linearGradient>
		<path id="XMLID_199_" fill="url(#XMLID_115_)" d="M387.4,103.8c-7,2,0.6,11.2,4.8,12.8c4.2,1.7,4.6,4.6,7.7,2.6
			c3.1-2,0.7-8.4-1.7-11.4S392.6,102.3,387.4,103.8z"/>
		<linearGradient id="XMLID_116_" gradientUnits="userSpaceOnUse" x1="390.3319" y1="90.971" x2="455.0568" y2="58.0307">
			<stop  offset="0" style="stop-color:#DEF1ED"/>
			<stop  offset="1" style="stop-color:#E6F1F2;stop-opacity:0"/>
		</linearGradient>
		<path id="XMLID_206_" fill="url(#XMLID_116_)" d="M365.7,94.3c-3.6,0.1-3.5,5.1,2.4,10.3c5.9,5.1,8.8,5.5,8.1-1.5
			C375.5,96.1,370.3,94.1,365.7,94.3z"/>
		<linearGradient id="XMLID_117_" gradientUnits="userSpaceOnUse" x1="286.9536" y1="139.1867" x2="381.1514" y2="84.2862">
			<stop  offset="0" style="stop-color:#DEF1ED"/>
			<stop  offset="1" style="stop-color:#E6F1F2;stop-opacity:0"/>
		</linearGradient>
		<path id="XMLID_208_" fill="url(#XMLID_117_)" d="M247.5,204.1c0,0-8.3-3.6-8.3-19.5s17.1-35.2,17.6-33.3c0.6,1.9,2.8,2.8,8-3
			c5.2-5.8,13.2-9.4,17.3-9.1c4.1,0.3,8.5-6.1,5.8-9.6c-2.8-3.6-10.7-2.2-9.1-6.6s11.6-6.6,19-8.5c7.4-1.9,13.2-11.8,9.4-17.9
			s-19.3-0.6-26.4,4.4s-12.4,13.5-17.3,13.5c-5,0-14.3,13.8-17.9,23.4c-3.6,9.6-8.8,12.7-12.4,19c-3.6,6.3-1.7,12.7-5.2,12.7
			s-6.6,1.7-6.9,6.3c-0.3,4.7,2.5,5.5,6.6,10.7C231.8,191.8,241.1,203.3,247.5,204.1z"/>
		<linearGradient id="XMLID_118_" gradientUnits="userSpaceOnUse" x1="273.2413" y1="115.6592" x2="367.4391" y2="60.7587">
			<stop  offset="0" style="stop-color:#DEF1ED"/>
			<stop  offset="1" style="stop-color:#E6F1F2;stop-opacity:0"/>
		</linearGradient>
		<path id="XMLID_213_" fill="url(#XMLID_118_)" d="M225.5,160c-0.5,4.2-2.1-13.2,1.9-19.3c4-6.1,3.5-14.2,8.7-19.1
			c5.3-5,7.4-6.7,9.8-4.1c2.4,2.6,2.7,6.7-3,13.7c-5.7,7.1-8.5,9.5-12.3,14.6C226.9,151,226,155.5,225.5,160z"/>
		<linearGradient id="XMLID_119_" gradientUnits="userSpaceOnUse" x1="250.9457" y1="77.4047" x2="345.1435" y2="22.5042">
			<stop  offset="0" style="stop-color:#DEF1ED"/>
			<stop  offset="1" style="stop-color:#E6F1F2;stop-opacity:0"/>
		</linearGradient>
		<path id="XMLID_215_" fill="url(#XMLID_119_)" d="M256.6,73.1c-1.5,6.5,6.3,7.4,10.4,4.3c4.1-3.2,3.2-7.2,5.4-8.7
			c2.2-1.5,5.2-2,8.2-6c3-4,8.5-3.6,8.8-7.8c0.3-4.3-3.2-8.7-6.5-5.1c-3.3,3.6-7.6,8.1-12.5,10C265.5,61.6,258.5,65,256.6,73.1z"/>
		<linearGradient id="XMLID_120_" gradientUnits="userSpaceOnUse" x1="257.0661" y1="87.9059" x2="351.2639" y2="33.0054">
			<stop  offset="0" style="stop-color:#DEF1ED"/>
			<stop  offset="1" style="stop-color:#E6F1F2;stop-opacity:0"/>
		</linearGradient>
		<path id="XMLID_216_" fill="url(#XMLID_120_)" d="M248.8,88.2c-1.9,3.6-8.1,5.5-8.1,8.4s4.8,4.3,7.3,2.3c2.5-1.9,3.4-6.1,6.2-7.2
			c2.8-1.1,4-5.8,2.5-7.3S250.3,85.3,248.8,88.2z"/>
		<linearGradient id="XMLID_121_" gradientUnits="userSpaceOnUse" x1="296.3452" y1="155.3006" x2="390.543" y2="100.4001">
			<stop  offset="0" style="stop-color:#DEF1ED"/>
			<stop  offset="1" style="stop-color:#E6F1F2;stop-opacity:0"/>
		</linearGradient>
		<path id="XMLID_214_" fill="url(#XMLID_121_)" d="M218.7,186.9c-3.4,1.4-2.6,8.4,2.9,13.4c5.5,5,9.5,7.7,11.4,5.5
			s-0.2-4.4-3.7-7.5S224.5,184.5,218.7,186.9z"/>
	</g>
</g>
<g id="ROCKET_SMOKE_1">
	<g id="XMLID_19_">
		<linearGradient id="XMLID_122_" gradientUnits="userSpaceOnUse" x1="286.3922" y1="456.9738" x2="324.1517" y2="561.8614">
			<stop  offset="7.167093e-002" style="stop-color:#FFF5D4;stop-opacity:0.5"/>
			<stop  offset="0.9282" style="stop-color:#F6CA5C"/>
		</linearGradient>
		<path id="XMLID_21_" fill="url(#XMLID_122_)" d="M432.8,541.1c-0.9,0.3-18.9,6.3-45.5,11.2c-20.7,3.8-46.5,7.1-73.5,6.5
			c-25.3-0.5-48.5-3.8-67.4-7.7c-28.3-5.7-46.6-12.6-46.6-12.6s32.4,2.3,37.4-0.8c5.1-3.1,2.5-11.2,10.5-11.5
			c7.9-0.3,13.7,3.6,13.7,3.6s-10.8-15.1-0.4-18c10.5-2.9,26.3,11,26.3,11s-5.1-6.8,1.4-5.7c6,1,8,4,8.3,4.4
			c-0.5-1-7.4-17.1,7.6-21.9c15.5-5,33.9,11.5,33.9,11.5s0-6,8.7-3.7c8.7,2.4,4.7,13,4.7,13s8.7-9.9,19.1-6.3
			c10.5,3.7,7.2,12.3,1.8,16.4C367.4,535,418.3,544.5,432.8,541.1z"/>
		<linearGradient id="XMLID_123_" gradientUnits="userSpaceOnUse" x1="316.8388" y1="579.1166" x2="316.8388" y2="537.0354">
			<stop  offset="7.167093e-002" style="stop-color:#FFF5D4;stop-opacity:0.5"/>
			<stop  offset="0.9282" style="stop-color:#F6CA5C"/>
		</linearGradient>
		<path id="XMLID_20_" fill="url(#XMLID_123_)" d="M387.3,552.3c-20.7,3.8-46.5,7.1-73.5,6.5c-25.3-0.5-48.5-3.8-67.4-7.7
			c0.3-0.1,0.6-0.2,0.8-0.4c4.3-2.7,2.2-9.7,9-9.9c6.6-0.2,11.5,2.9,11.8,3.1c-0.3-0.4-9.1-13-0.3-15.5c9-2.5,22.7,9.4,22.7,9.4
			s-4.3-5.8,1.2-4.9c5.2,0.8,6.9,3.4,7.1,3.8c-0.4-0.9-6.4-14.7,6.5-18.8c13.4-4.3,29.2,9.9,29.2,9.9s0-5.2,7.5-3.1
			c7.5,2,4,11.2,4,11.2s7.5-8.5,16.5-5.4c9,3.1,6.2,10.6,1.6,14.2C361.4,546.8,373.7,550.2,387.3,552.3z"/>
	</g>
</g>
<g id="ROCKET_SMOKE_2">
	<g id="XMLID_309_">
		<linearGradient id="XMLID_124_" gradientUnits="userSpaceOnUse" x1="391.1474" y1="555.5323" x2="523.9831" y2="405.1379">
			<stop  offset="7.179487e-002" style="stop-color:#F6CA5C"/>
			<stop  offset="0.9283" style="stop-color:#FFF5D4;stop-opacity:0.5"/>
		</linearGradient>
		<path id="XMLID_223_" fill="url(#XMLID_124_)" d="M408.4,512.2c0,0,19.1-6.8,25.6-8.9s7.8-8.6,11-7.6c3.2,1,9.7,3.9,19.1,2.1
			c9.4-1.8,9.7-7.1,6.7-8.9c-3-1.8,2.2-5.8,10.5-8.9s19.1-13.1,20.8-19.1s4.3,1.3,10.5,1.3s10.8-2.9,15.4-21.7
			c4.6-18.8,9.7-26.4,15.4-33.2s5.9-12.6,5.9-12.6s-5.4,8.6-16.2,16.2c-10.8,7.6-12.7,6.8-15.9,3.1c-3.2-3.7-11.6,2.9-11,8.6
			s-5.1,5.8-7.8,1.8c-2.7-3.9-10-1.6-12.4,11c-2.4,12.6-8.9,16.7-12.7,17.8c-3.8,1,7.3-9.7,0-19.6c-7.3-9.9-21.6-3.9-24,11.5
			s-3.5,21.4-8.1,23.3c-4.6,1.8-5.4-2.1-9.2,1c-3.8,3.1,0,17.3-5.9,25.1C420.3,502.5,408.4,512.2,408.4,512.2z"/>
		<linearGradient id="XMLID_125_" gradientUnits="userSpaceOnUse" x1="498.9626" y1="512.8952" x2="572.7101" y2="389.1494">
			<stop  offset="7.179487e-002" style="stop-color:#F6CA5C"/>
			<stop  offset="0.9283" style="stop-color:#FFF5D4;stop-opacity:0.5"/>
		</linearGradient>
		<path id="XMLID_224_" fill="url(#XMLID_125_)" d="M531.3,445.6c0,0,16.6-7.3,21-11.2s6.5-5.5,4.2-6.5s0.8-3.9,4.9-5.3
			c4-1.4,8.5-7.1,6.3-11c-2.2-3.9-11.7,1-11.7-2.4s-3.8-4.7-6.5-0.4c-2.6,4.3,0.8,6.5,0.2,9.2c-0.6,2.7-8.9,3.5-9.5,8
			c-0.6,4.5,3.2,2.4,1.6,4.9C540.2,433.7,531.3,445.6,531.3,445.6z"/>
		<linearGradient id="XMLID_126_" gradientUnits="userSpaceOnUse" x1="471.9176" y1="497.5174" x2="545.7678" y2="373.5994">
			<stop  offset="7.179487e-002" style="stop-color:#F6CA5C"/>
			<stop  offset="0.9283" style="stop-color:#FFF5D4;stop-opacity:0.5"/>
		</linearGradient>
		<path id="XMLID_225_" fill="url(#XMLID_126_)" d="M536.1,389.4c-3.8-0.2-6.9-1-9.1,3.5c-2.2,4.5,3,5.9,3,5.9s-2.8,3.9-7.5,6.5
			c-4.6,2.5-4.6,2.5-4.6,2.5s14.1-2.2,19.8-8.8C543.4,392.3,541,389.5,536.1,389.4z"/>
		<linearGradient id="XMLID_127_" gradientUnits="userSpaceOnUse" x1="446.2915" y1="482.0032" x2="519.7496" y2="358.7431">
			<stop  offset="7.179487e-002" style="stop-color:#F6CA5C"/>
			<stop  offset="0.9283" style="stop-color:#FFF5D4;stop-opacity:0.5"/>
		</linearGradient>
		<path id="XMLID_227_" fill="url(#XMLID_127_)" d="M488.6,407c-4.8-0.9-9.9,6.3-11.5,12.4c-1.6,6.1-0.6,12.2,2.2,10.2
			c2.8-2,3.4-5.5,3.4-5.5s1,3.1,6.7-2.5S492.9,407.8,488.6,407z"/>
	</g>
</g>
<g id="ROCKET_SMOKE_3">
	<g id="XMLID_10_">
		<linearGradient id="XMLID_128_" gradientUnits="userSpaceOnUse" x1="80.2693" y1="407.1283" x2="138.2877" y2="537.9156">
			<stop  offset="7.167093e-002" style="stop-color:#FFF5D4;stop-opacity:0.5"/>
			<stop  offset="0.9282" style="stop-color:#F6CA5C"/>
		</linearGradient>
		<path id="XMLID_13_" fill="url(#XMLID_128_)" d="M183,517.6c0,0-16.1-4.7-20.8-14.5c-4.7-9.8-4.2-16.6-9.6-14.7
			c-5.4,1.9-1.4,4.7-3,4.9s-10.8-7.7-10.3-16.6c0.5-8.9-4.4-19.9-11.2-17.1c-6.8,2.8-9.6,2.8-12.9-3.3c-3.3-6.1-0.9-23.6-14.3-32.5
			c-13.3-8.9-14.7,2.8-11.7,7.7c3,4.9,6.1,13.1,1.6,15s-7.3-6.3-9.4-12.9c-2.1-6.6-10.3-12.4-16.1-8.9c-5.9,3.5-4.4,13.8-10.3,13.6
			s-15.9-15.4-18.3-13.3c-2.3,2.1,4.9,22.7,26,35.8c21.1,13.1,33.7,14.7,31.8,20.1c-1.9,5.4-1.4,8,6.8,13.1s30.6,13.5,52.4,19.7
			C175.6,520,183,517.6,183,517.6z"/>
		<linearGradient id="XMLID_129_" gradientUnits="userSpaceOnUse" x1="105.4389" y1="395.9628" x2="163.4574" y2="526.7501">
			<stop  offset="7.167093e-002" style="stop-color:#FFF5D4;stop-opacity:0.5"/>
			<stop  offset="0.9282" style="stop-color:#F6CA5C"/>
		</linearGradient>
		<path id="XMLID_12_" fill="url(#XMLID_129_)" d="M121.4,429.8c-4.2,1.4-4.1,9.5-0.5,15.6c3.6,6.1,6.6,3.7,7.3-1.7
			C129.1,438.2,130.2,426.8,121.4,429.8z"/>
		<linearGradient id="XMLID_130_" gradientUnits="userSpaceOnUse" x1="51.554" y1="419.8667" x2="109.5724" y2="550.6539">
			<stop  offset="7.167093e-002" style="stop-color:#FFF5D4;stop-opacity:0.5"/>
			<stop  offset="0.9282" style="stop-color:#F6CA5C"/>
		</linearGradient>
		<path id="XMLID_11_" fill="url(#XMLID_130_)" d="M51,417.9c-7.1,2.4,1.2,14.7,4.4,13.6S59.2,415.1,51,417.9z"/>
	</g>
</g>
<g id="LEFT_ARM_1">
	<g id="XMLID_252_">
		<linearGradient id="XMLID_131_" gradientUnits="userSpaceOnUse" x1="208.4524" y1="331.9916" x2="226.6446" y2="375.9151">
			<stop  offset="0.129" style="stop-color:#FCCEA5"/>
			<stop  offset="1" style="stop-color:#F27E69"/>
		</linearGradient>
		<path id="XMLID_285_" fill="url(#XMLID_131_)" d="M231.8,335.2c-0.5,0.8-2.3,1.7-3.3,2.5c0,0,0,0,0,0c-0.2,0.1-0.4,0.3-0.6,0.4
			c-0.8,0.8-8.9,17.4-13.2,22.1c-4.2,4.7-8.9,3.9-13.1,2c-4.2-1.9-4.2-1.9-4.2-1.9s-0.1-1.6,0-3.5c0.2-2.5,0.9-5.4,3.3-4.8
			c0,0,3.1,2.9,6.4,2.3c3.3-0.6,12.8-11.9,15.3-14.9c2.5-3,2.8-3.6,2.8-3.6s0.4-2.2,1.6-2.9s1.5-1,2.2-1.7c0.8-0.7,1.3-0.7,1.8-0.1
			C231.2,331.8,232.4,334.2,231.8,335.2z"/>
		<linearGradient id="XMLID_132_" gradientUnits="userSpaceOnUse" x1="224.215" y1="325.463" x2="242.4072" y2="369.3866">
			<stop  offset="0.129" style="stop-color:#FCCEA5"/>
			<stop  offset="1" style="stop-color:#F27E69"/>
		</linearGradient>
		<path id="XMLID_269_" fill="url(#XMLID_132_)" d="M225.8,333.6c0,0,0.2-0.9,0.8-2.3c0.5-1.4,0.7-2.6,1.2-2.5
			c0.5,0.1,0.7,1.3,0.4,2.4c-0.2,1.1-0.5,1.6-0.5,2.3c0.1,0.7-0.6,1.9-1.2,2S225.4,334.6,225.8,333.6z"/>
		<linearGradient id="XMLID_133_" gradientUnits="userSpaceOnUse" x1="229.5391" y1="323.2579" x2="247.7313" y2="367.1814">
			<stop  offset="0.129" style="stop-color:#FCCEA5"/>
			<stop  offset="1" style="stop-color:#F27E69"/>
		</linearGradient>
		<path id="XMLID_273_" fill="url(#XMLID_133_)" d="M229.9,330.7c0,0,1.6-0.9,2.5-1.6c0.9-0.7,1.5-1.2,1.8-1.2c0.3,0.1,0.4,0.5,0,1
			c-0.4,0.5-3.1,2.7-3.5,2.8C230.4,331.9,229.8,331.2,229.9,330.7z"/>
		<linearGradient id="XMLID_134_" gradientUnits="userSpaceOnUse" x1="230.0476" y1="323.0473" x2="248.2398" y2="366.9708">
			<stop  offset="0.129" style="stop-color:#FCCEA5"/>
			<stop  offset="1" style="stop-color:#F27E69"/>
		</linearGradient>
		<path id="XMLID_274_" fill="url(#XMLID_134_)" d="M230.4,331.7c0,0,1.9-1,3-1.8c1.1-0.8,1.8-1.4,2.1-1.3c0.3,0.1,0.5,0.6,0,1.1
			c-0.5,0.5-3.7,3-4.1,3.2S230.3,332.3,230.4,331.7z"/>
		<linearGradient id="XMLID_135_" gradientUnits="userSpaceOnUse" x1="229.6817" y1="323.1988" x2="247.8739" y2="367.1224">
			<stop  offset="0.129" style="stop-color:#FCCEA5"/>
			<stop  offset="1" style="stop-color:#F27E69"/>
		</linearGradient>
		<path id="XMLID_275_" fill="url(#XMLID_135_)" d="M230.7,332.7c0,0,1.8-0.7,2.9-1.3c1-0.6,1.7-1.1,2-1c0.3,0.1,0.4,0.6-0.1,1
			s-3.5,2.4-4,2.5S230.6,333.3,230.7,332.7z"/>
		<linearGradient id="XMLID_136_" gradientUnits="userSpaceOnUse" x1="228.9195" y1="323.5145" x2="247.1117" y2="367.438">
			<stop  offset="0.129" style="stop-color:#FCCEA5"/>
			<stop  offset="1" style="stop-color:#F27E69"/>
		</linearGradient>
		<path id="XMLID_276_" fill="url(#XMLID_136_)" d="M230.8,334.5c0,0,1.7-0.6,2.6-1.2c0.9-0.6,1.6-1,1.8-0.9s0.4,0.5-0.1,0.9
			c-0.4,0.4-3.2,2.1-3.6,2.2C231.2,335.6,230.7,335,230.8,334.5z"/>
		<linearGradient id="XMLID_137_" gradientUnits="userSpaceOnUse" x1="203.05" y1="325.1288" x2="221.2422" y2="369.0523">
			<stop  offset="0.129" style="stop-color:#FCCEA5"/>
			<stop  offset="1" style="stop-color:#F27E69"/>
		</linearGradient>
		<path id="XMLID_283_" fill="url(#XMLID_137_)" d="M228.5,337.7c-0.2,0.1-0.4,0.3-0.6,0.4c-0.8,0.8-8.9,17.4-13.2,22.1
			c-4.2,4.7-8.9,3.9-13.1,2c-4.2-1.9-4.2-1.9-4.2-1.9s-0.1-1.6,0-3.5c0.4,0.2,0.8,0.4,1.2,0.7c3.2,1.9,7.2,3.6,13,1
			c5.8-2.5,13.1-17.1,14.6-19.2C227.4,337.8,228.2,337.7,228.5,337.7z"/>
	</g>
	<g id="XMLID_250_">
		<linearGradient id="XMLID_138_" gradientUnits="userSpaceOnUse" x1="194.483" y1="348.0467" x2="172.6851" y2="365.0917">
			<stop  offset="0" style="stop-color:#FBB416"/>
			<stop  offset="1" style="stop-color:#D66727"/>
		</linearGradient>
		<path id="XMLID_271_" fill="url(#XMLID_138_)" d="M204,357.2c-0.1,1.1-0.3,2.2-0.7,3.5c-1.5,4.3-3.5,4.4-3.5,4.4l-13.6-8.4
			c0,0-7.5-4.8-8.1-11.9c-0.1-0.9,0-1.7,0.1-2.6c1.4-8.4,8.1-4.9,8.1-4.9l17.2,15.3C203.5,352.6,204.2,354.5,204,357.2z"/>
		<linearGradient id="XMLID_139_" gradientUnits="userSpaceOnUse" x1="199.1117" y1="347.7105" x2="179.4445" y2="361.9693">
			<stop  offset="0" style="stop-color:#FBB416"/>
			<stop  offset="1" style="stop-color:#D66727"/>
		</linearGradient>
		<path id="XMLID_270_" fill="url(#XMLID_139_)" d="M204,357.2c-0.1,1-0.2,2.1-0.6,3.2c0,0.1,0,0.1-0.1,0.2
			c-1.5,4.3-3.5,4.4-3.5,4.4l-13.6-8.4c0,0-4.5-2.9-6.8-7.5c-0.7-1.3-1.1-2.8-1.3-4.4c3.9,3.2,12.5,9.3,17.8,11.3
			C199.9,357.7,202.6,357.5,204,357.2z"/>
		<linearGradient id="XMLID_140_" gradientUnits="userSpaceOnUse" x1="205.0712" y1="346.8117" x2="184.4205" y2="360.7017">
			<stop  offset="0" style="stop-color:#FBB416"/>
			<stop  offset="1" style="stop-color:#D66727"/>
		</linearGradient>
		<path id="XMLID_267_" fill="url(#XMLID_140_)" d="M203.3,360.4c0,0.1,0,0.1-0.1,0.2c-1.5,4.3-3.5,4.4-3.5,4.4l-13.6-8.4
			c0,0-4.5-2.9-6.8-7.5c4.3,3.4,11.6,8.3,16.3,10.1C199.3,360.7,201.9,360.7,203.3,360.4z"/>
		<linearGradient id="XMLID_141_" gradientUnits="userSpaceOnUse" x1="200.3192" y1="343.8981" x2="194.4191" y2="352.3387">
			<stop  offset="0" style="stop-color:#FBB416"/>
			<stop  offset="1" style="stop-color:#FCD475"/>
		</linearGradient>
		<path id="XMLID_247_" fill="url(#XMLID_141_)" d="M190.6,341.7l12.4,11.1c0,0,0.2,1.2,0.4,1.9s0.1,0.7,0.1,0.7L190.6,341.7z"/>
	</g>
</g>
<g id="RIGHT_LEG_1">
	<g id="XMLID_303_">
		<g id="XMLID_246_">
			<linearGradient id="XMLID_142_" gradientUnits="userSpaceOnUse" x1="145.4061" y1="527.9283" x2="144.9145" y2="519.9795">
				<stop  offset="0.129" style="stop-color:#FCCEA5"/>
				<stop  offset="1" style="stop-color:#F27E69"/>
			</linearGradient>
			<polygon id="XMLID_243_" fill="url(#XMLID_142_)" points="147.8,526 148.1,519.1 142.6,519.4 142.1,527 			"/>
			<g id="XMLID_239_">
				<linearGradient id="XMLID_143_" gradientUnits="userSpaceOnUse" x1="153.0249" y1="537.4213" x2="151.1811" y2="550.8196">
					<stop  offset="0" style="stop-color:#007978"/>
					<stop  offset="1" style="stop-color:#17565F"/>
				</linearGradient>
				<path id="XMLID_529_" fill="url(#XMLID_143_)" d="M167.8,532.6c-0.1,0.1-0.3,0.3-0.6,0.4c-2,0.9-7.5,1.6-15.2,2
					c-8.4,0.5-12.5,0-13-2c0-0.1,0-0.2-0.1-0.3c0,0,0.7-3.4,1.4-5.5c0.2-0.7,0.5-1.3,0.7-1.4c0.8-0.7,6.4-2.4,10.1-1.8
					s13.7,2.9,15.7,4.2c0.8,0.5,1.3,1.3,1.7,1.8C169,530.8,168.5,531.9,167.8,532.6z"/>
				<linearGradient id="XMLID_144_" gradientUnits="userSpaceOnUse" x1="155.1293" y1="526.3348" x2="150.0896" y2="540.1019">
					<stop  offset="0" style="stop-color:#055F68"/>
					<stop  offset="1" style="stop-color:#0D2338"/>
				</linearGradient>
				<path id="XMLID_527_" fill="url(#XMLID_144_)" d="M167.2,533c-2,0.9-7.5,1.6-15.2,2c-8.4,0.5-12.5,0-13-2c0-0.1,0-0.2-0.1-0.3
					c0,0,0.7-3.4,1.4-5.5c1.8-0.7,6.2-1.7,9.3-1.4c8.4,0.7,13.7,2.9,15.7,4.2c0.8,0.6,1.3,1.3,1.7,1.8
					C167.2,532.2,167.3,532.6,167.2,533z"/>
				<path id="XMLID_241_" fill="#181F48" d="M167.8,532.6c-1.2,1.2-7.1,1.9-15.8,2.4c-8.4,0.5-12.5,0-13-2c1.1-1.1,4.4-2.8,11.5-2.5
					c9.2,0.3,14.8-1,18.2-0.1C168.7,530.4,168.5,531.9,167.8,532.6z"/>
			</g>
		</g>
		<g id="XMLID_228_">
			<linearGradient id="XMLID_145_" gradientUnits="userSpaceOnUse" x1="159.0489" y1="500.0081" x2="162.9824" y2="374.4654">
				<stop  offset="0.2462" style="stop-color:#2C99C4"/>
				<stop  offset="0.8513" style="stop-color:#066886"/>
			</linearGradient>
			<path id="XMLID_514_" fill="url(#XMLID_145_)" d="M180.8,390.5c0,0,0,3.7-0.1,8.3c-0.1,5.7-0.4,12.8-1.1,16.6
				c-0.1,0.4-0.1,0.7-0.2,1c-0.2,1-0.6,2.3-1.2,3.7c-2.6,6.9-8.4,18.9-14.6,39.4c-0.2,0.7-0.4,1.3-0.6,2
				c-7.7,26.2-13.1,58.9-13.1,58.9s-1.1,0.9-3.8,1.2c-0.3,0-0.7,0.1-1.1,0.1c-3.6,0.2-5.1-1-5.1-1s3.2-37.7,7.7-67.6
				c2.2-14.7,3.9-29.2,5.1-40.2c1.2-11.4,1.9-19,1.9-19s1.4-1.3,10-3C172.7,389.5,180.8,390.5,180.8,390.5z"/>
			<linearGradient id="XMLID_146_" gradientUnits="userSpaceOnUse" x1="159.0059" y1="546.4156" x2="165.2981" y2="419.0609">
				<stop  offset="0.2462" style="stop-color:#2C99C4"/>
				<stop  offset="0.8513" style="stop-color:#066886"/>
			</linearGradient>
			<path id="XMLID_511_" fill="url(#XMLID_146_)" d="M179.6,415.5c-0.1,0.4-0.1,0.7-0.2,1c-0.2,1-0.6,2.3-1.2,3.7
				c-2.6,6.9-8.4,18.9-14.6,39.4c-0.2,0.7-0.4,1.3-0.6,2c-7.7,26.2-13.1,58.9-13.1,58.9s-1.1,0.9-3.8,1.2c0.7-4.4,2.2-14,4.3-24.8
				c2.8-15,4.2-24.8,6.3-35.9c3.8-19.8,7.1-30.4,9.3-35.8C169.3,416.9,176.1,415.4,179.6,415.5z"/>
			<linearGradient id="XMLID_147_" gradientUnits="userSpaceOnUse" x1="168.0623" y1="409.1391" x2="166.0956" y2="398.1582">
				<stop  offset="0.2462" style="stop-color:#177091"/>
				<stop  offset="0.8459" style="stop-color:#004F67"/>
			</linearGradient>
			<path id="XMLID_255_" fill="url(#XMLID_147_)" d="M180.8,390.5c0,0,0,3.7-0.1,8.3c-1.4,0.2-3,0.5-4.6,1
				c-11.3,3-20.8,10.9-23.4,13.2c1.2-11.4,1.9-19,1.9-19s1.4-1.3,10-3C172.7,389.5,180.8,390.5,180.8,390.5z"/>
			<linearGradient id="XMLID_148_" gradientUnits="userSpaceOnUse" x1="202.5212" y1="455.8039" x2="154.4933" y2="455.8039">
				<stop  offset="0.1601" style="stop-color:#F8CE63"/>
				<stop  offset="0.8889" style="stop-color:#288CB3"/>
			</linearGradient>
			<path id="XMLID_305_" fill="url(#XMLID_148_)" d="M163.4,415.1c-1.3,2.4-3.3,11.6-6.7,27.9c-4.6,21.8-7,57-7,57
				s9.3-61.4,20.3-80.7C175,410.2,166.3,409.8,163.4,415.1z"/>
		</g>
	</g>
</g>
<g id="LEFT_LEG_1">
	<g id="XMLID_245_">
		<linearGradient id="XMLID_149_" gradientUnits="userSpaceOnUse" x1="186.0914" y1="521.5785" x2="185.1733" y2="513.6491">
			<stop  offset="0.129" style="stop-color:#FCCEA5"/>
			<stop  offset="1" style="stop-color:#F27E69"/>
		</linearGradient>
		<polygon id="XMLID_240_" fill="url(#XMLID_149_)" points="182.5,511.9 182.2,520.2 188.5,519.9 188.7,511.7 		"/>
		<linearGradient id="XMLID_150_" gradientUnits="userSpaceOnUse" x1="194.8277" y1="518.1318" x2="192.6147" y2="540.7545">
			<stop  offset="0" style="stop-color:#007978"/>
			<stop  offset="1" style="stop-color:#17565F"/>
		</linearGradient>
		<path id="XMLID_530_" fill="url(#XMLID_150_)" d="M207.8,525.1c-0.2,0.2-0.6,0.5-1.2,0.7c-2.1,0.9-6.9,1.8-13.3,2.8
			c-7.9,1.1-11.9,1.1-12.9-0.7c0-0.1-0.1-0.1-0.1-0.2c0,0,0-4.1,0.3-6.4c0.1-0.7,0.2-1.3,0.4-1.5c0.6-0.7,1.8-2.2,5.6-1.9
			c3.7,0.2,16.6,2.9,18.8,4c0.9,0.4,1.6,0.9,2.1,1.3C208.2,523.7,208.3,524.4,207.8,525.1z"/>
		<linearGradient id="XMLID_151_" gradientUnits="userSpaceOnUse" x1="193.9449" y1="520.4081" x2="192.1582" y2="538.6721">
			<stop  offset="0" style="stop-color:#055F68"/>
			<stop  offset="1" style="stop-color:#0D2338"/>
		</linearGradient>
		<path id="XMLID_526_" fill="url(#XMLID_151_)" d="M206.6,525.8c-2.1,0.9-6.9,1.8-13.3,2.8c-7.9,1.1-11.9,1.1-12.9-0.7
			c0-0.1-0.1-0.1-0.1-0.2c0,0,0-4.1,0.3-6.4c0.8-0.6,2.2-1.2,4.7-1.1c10.3,0.3,17.5,2.3,19.8,3.4c0.9,0.4,0.7,1.4,1.1,1.9
			C206.4,525.5,206.5,525.7,206.6,525.8z"/>
		<path id="XMLID_249_" fill="#181F48" d="M207.8,525.1c-0.9,1.2-6.3,2.4-14.5,3.5c-7.9,1.1-11.9,1.1-12.9-0.7
			c0.8-1.1,3.5-2.9,10.4-3.3c8.9-0.5,13.2-2,16.7-1.5c0,0,0,0,0,0C208.2,523.7,208.3,524.4,207.8,525.1z"/>
	</g>
	<g id="XMLID_487_">
		<linearGradient id="XMLID_152_" gradientUnits="userSpaceOnUse" x1="181.3842" y1="500.7079" x2="185.3177" y2="375.1652">
			<stop  offset="0.2462" style="stop-color:#2C99C4"/>
			<stop  offset="0.8513" style="stop-color:#066886"/>
		</linearGradient>
		<path id="XMLID_260_" fill="url(#XMLID_152_)" d="M196.5,396.4c0,0,0,1.7-0.1,4.6c-0.1,10.1-0.7,35.3-2.3,59.3
			c-2.1,30.9-3.5,54.3-3.5,54.3s-2.6,1.2-5.7,1.4c-2.1,0.1-4.5-0.5-4.5-0.5s0.5-34.2-1.2-61.6c-1.3-20-3.5-33.5-4.9-41.6
			c-0.5-3-0.9-5.3-1.1-6.9c-0.2-1.5-0.3-3.1-0.4-4.6c-0.3-4.6-0.1-8.5-0.1-8.5S194.2,387.9,196.5,396.4z"/>
		<linearGradient id="XMLID_153_" gradientUnits="userSpaceOnUse" x1="175.7842" y1="546.3199" x2="181.8575" y2="423.3976">
			<stop  offset="0.2462" style="stop-color:#2C99C4"/>
			<stop  offset="0.8513" style="stop-color:#066886"/>
		</linearGradient>
		<path id="XMLID_248_" fill="url(#XMLID_153_)" d="M186.3,483.9c-2.9,28.2-1.1,31.5-0.9,31.9c-2,0.5-5-0.4-5-0.4s0.5-34.2-1.2-61.6
			c-1.3-20-3.5-33.5-4.9-41.6c0.9-1.7-1.3-0.2,4,2.6c6.2,3.4,7.4,4.9,8.3,14C187.4,437.4,187.4,472.7,186.3,483.9z"/>
		<linearGradient id="XMLID_154_" gradientUnits="userSpaceOnUse" x1="185.9338" y1="405.9383" x2="183.9671" y2="394.9574">
			<stop  offset="0.2462" style="stop-color:#177091"/>
			<stop  offset="0.8459" style="stop-color:#004F67"/>
		</linearGradient>
		<path id="XMLID_257_" fill="url(#XMLID_154_)" d="M196.5,396.4c0,0,0,1.7-0.1,4.6c-2.9-1.7-9.8-4-20.3-1.2
			c-1.1,0.3-2.3,0.7-3.4,1.1c-0.3-4.6-0.1-8.5-0.1-8.5S194.2,387.9,196.5,396.4z"/>
		<linearGradient id="XMLID_155_" gradientUnits="userSpaceOnUse" x1="208.3684" y1="460.2053" x2="186.1533" y2="460.2053">
			<stop  offset="0.1601" style="stop-color:#F8CE63"/>
			<stop  offset="0.8889" style="stop-color:#1B7FA3"/>
		</linearGradient>
		<path id="XMLID_298_" fill="url(#XMLID_155_)" d="M194.7,408.2c-2.7-0.7-4.1,24.6-3.9,38.3c0.2,13.7-0.9,65.8-0.9,65.8
			s4.8-59.8,5-71.7C195.2,428.7,197.2,408.8,194.7,408.2z"/>
	</g>
</g>
<g id="HAIR">
	<g id="XMLID_279_">
		<linearGradient id="XMLID_156_" gradientUnits="userSpaceOnUse" x1="169.1656" y1="314.7732" x2="165.2922" y2="342.8553">
			<stop  offset="0" style="stop-color:#5E5441"/>
			<stop  offset="0.9247" style="stop-color:#4F443B"/>
		</linearGradient>
		<path id="XMLID_299_" fill="url(#XMLID_156_)" d="M189.2,308.6c-0.1,0.5-0.1,0.9-0.2,1.3v0c-0.7,3-2.2,2.3-2.2,2.3
			c-5.9-2.6-6.4,3.9-6.3,8.4c0,1.5,0.1,2.7,0.2,3.3c0.1,2.4,4,4.2,5,6.2c1,2,1.9,5.1-7.6,7.8c-9.5,2.7-19.6-0.4-20-1.6
			c-0.3-0.8,1.1-1.8,2.1-2.3c0.3-0.2,0.6-0.3,0.8-0.4c-0.6,0.2-3.5,1.1-6,0.4c-2.8-0.8-6.7-3-6.4-8.1c0-0.3,0.1-0.6,0.1-0.9
			c0.6-3.5,3.5-3.6,4.2-3.6c-0.1,0-0.3-0.1-0.6-0.2c-0.6-0.2-1.3-0.7-2-1.8c-0.9-1.4-1-3-0.2-4c0.3-0.4,0.7-0.8,1.3-1
			c2-0.7,1.8,2.2,4.6,0.2c2.8-2,1.3-4.1,3.8-10.5c2.5-6.3,8.7-6.4,8.7-6.4s-4.7-2.2,0.4-2.4c5.1-0.2,9.1,3.1,9.1,3.1
			s0.9-0.3,3.8-0.4c3.1-0.1,4.2,0.9,4.5,1.8c0.5,1.8-2,1.5-2,1.5S189.8,304.1,189.2,308.6z"/>
		<linearGradient id="XMLID_157_" gradientUnits="userSpaceOnUse" x1="173.9652" y1="341.627" x2="173.2277" y2="333.1455">
			<stop  offset="0" style="stop-color:#5E5441"/>
			<stop  offset="0.9247" style="stop-color:#4F443B"/>
		</linearGradient>
		<path id="XMLID_281_" fill="url(#XMLID_157_)" d="M166.7,313.2c0,0-0.2,4.7-3.2,6.9c-3,2.2-3.6,4-1.4,7.3c2.2,3.3,6.8,1.4,6.9,3
			c0.1,1.6-3,1.8-2.4,3.9s9.7,2.7,13.8,0.3s6-4.3,2.3-7.4c-3.7-3.1-1.6-11.2-2-13.1C180.3,312.2,170.6,307,166.7,313.2z"/>
		<linearGradient id="XMLID_158_" gradientUnits="userSpaceOnUse" x1="183.6227" y1="297.1868" x2="181.2257" y2="303.5172">
			<stop  offset="0" style="stop-color:#5E5441"/>
			<stop  offset="0.9247" style="stop-color:#4F443B"/>
		</linearGradient>
		<path id="XMLID_295_" fill="url(#XMLID_158_)" d="M189,309.9C189,309.9,189,309.9,189,309.9c-0.7,3-2.2,2.3-2.2,2.3
			c-5.9-2.6-6.4,3.9-6.3,8.4l-1.6,0.2c0,0-5.5-1.3-7.3-2c-1.7-0.8-5.3-2.5-2.9-9.1c2.4-6.6,6.7-6.9,8-7.3c1.3-0.4,5.8-1.1,8.4,1.8
			C187.4,306.6,188.7,309.2,189,309.9z"/>
		<linearGradient id="XMLID_159_" gradientUnits="userSpaceOnUse" x1="155.1695" y1="311.5573" x2="154.8008" y2="318.3794">
			<stop  offset="0" style="stop-color:#5E5441"/>
			<stop  offset="0.9247" style="stop-color:#4F443B"/>
		</linearGradient>
		<path id="XMLID_294_" fill="url(#XMLID_159_)" d="M160.2,320.1c0,0-4.2,1.5-7.5,1.1c-0.2,0-0.4,0-0.5-0.1c-0.6-0.2-1.3-0.7-2-1.8
			c-0.9-1.4-1-3-0.2-4c0.2,0.8,0.8,1.7,2.2,2.4c2.8,1.5,4.6,1.1,4.7,1c-0.1,0.1-1.1,1-1.9,1c-0.9,0-0.9,0-0.9,0s1.5,0.6,3.8,0.4
			C160.2,320.1,160.2,320.1,160.2,320.1z"/>
		<linearGradient id="XMLID_160_" gradientUnits="userSpaceOnUse" x1="156.1643" y1="319.1757" x2="156.3487" y2="327.2885">
			<stop  offset="0" style="stop-color:#5E5441"/>
			<stop  offset="0.9247" style="stop-color:#4F443B"/>
		</linearGradient>
		<path id="XMLID_296_" fill="url(#XMLID_160_)" d="M164.4,330.9c-0.2,0.2-1.9,2-4.3,3c0.3-0.2,0.6-0.3,0.8-0.4
			c-0.6,0.2-3.5,1.1-6,0.4c-2.8-0.8-6.7-3-6.4-8.1c0-0.3,0.1-0.6,0.1-0.9c0.5,0.9,1.9,2.6,4.5,3.7c3.4,1.4,4.3,0.9,4.4,0.8
			c-0.1,0.1-0.7,1-2,1.2c-1.4,0.2-1.4,0.2-1.4,0.2s-0.1,1,4.7,0.9C163.1,331.5,164.2,331,164.4,330.9z"/>
		<linearGradient id="XMLID_161_" gradientUnits="userSpaceOnUse" x1="181.6965" y1="301.0179" x2="190.3411" y2="308.3864">
			<stop  offset="0" style="stop-color:#4F443A"/>
			<stop  offset="0.9247" style="stop-color:#87816C"/>
		</linearGradient>
		<path id="XMLID_508_" fill="url(#XMLID_161_)" d="M183.6,301.5c0,0,2,1.2,3.6,4.1s1.4,4.1,1.8,3C189.2,307.4,188,303,183.6,301.5z
			"/>
		<linearGradient id="XMLID_162_" gradientUnits="userSpaceOnUse" x1="178.202" y1="295.5683" x2="184.1917" y2="300.6738">
			<stop  offset="0" style="stop-color:#4F443A"/>
			<stop  offset="0.9247" style="stop-color:#87816C"/>
		</linearGradient>
		<path id="XMLID_284_" fill="url(#XMLID_162_)" d="M185.5,299.1c-0.5-0.6-1.6-0.9-3.6-0.9c-2,0-3.3,0.4-3.3,0.4s3-0.3,4.9,0.6
			C185.4,300.1,186.2,299.9,185.5,299.1z"/>
		<linearGradient id="XMLID_163_" gradientUnits="userSpaceOnUse" x1="166.6911" y1="292.6452" x2="173.4555" y2="298.411">
			<stop  offset="0" style="stop-color:#4F443A"/>
			<stop  offset="0.9247" style="stop-color:#87816C"/>
		</linearGradient>
		<path id="XMLID_515_" fill="url(#XMLID_163_)" d="M175.3,297.1c-2.9-1.7-6.2-1.6-7.4-1.4c-1.2,0.2-0.6,0.8,1.7,0.8
			C172,296.5,175.3,297.1,175.3,297.1z"/>
		<linearGradient id="XMLID_164_" gradientUnits="userSpaceOnUse" x1="163.7878" y1="307.0867" x2="160.9606" y2="301.8011">
			<stop  offset="0" style="stop-color:#4F443A"/>
			<stop  offset="0.9247" style="stop-color:#87816C"/>
		</linearGradient>
		<path id="XMLID_509_" fill="url(#XMLID_164_)" d="M168.4,297.9c0,0-4.4,0.3-7,3.6c-2.6,3.3-2.9,7-3.2,8.6c-0.3,1.6-0.8,3-0.8,3
			s1.2-0.9,2.4-4.6c1.2-3.7,3.6-6.5,4.9-7.2c1.3-0.7,1.8-0.8,1.8-0.8s-1.1-0.1-2.8,0.9c-1.7,1-2,1.7-2,1.7s0.8-1.7,2.8-3.2
			C166.5,298.5,168.4,297.9,168.4,297.9z"/>
		<linearGradient id="XMLID_165_" gradientUnits="userSpaceOnUse" x1="155.3206" y1="330.2473" x2="148.4985" y2="316.2958">
			<stop  offset="0" style="stop-color:#4F443A"/>
			<stop  offset="0.9247" style="stop-color:#87816C"/>
		</linearGradient>
		<path id="XMLID_516_" fill="url(#XMLID_165_)" d="M150.9,322.4c-1.1,0.1-2.5,2.4-0.4,4.3c3,2.8,7.1,2.5,7.1,2.5s-3.2-1.8-4.1-2.6
			c-1.3-1.1-1.9-2-1.9-2s1.8,1.8,3.7,1.6C157.2,326.1,155.8,321.9,150.9,322.4z"/>
	</g>
</g>
<g id="BODY">
	<g id="XMLID_244_">
		<linearGradient id="XMLID_166_" gradientUnits="userSpaceOnUse" x1="188.8969" y1="345.6528" x2="157.921" y2="429.4845">
			<stop  offset="0" style="stop-color:#FBB416"/>
			<stop  offset="1" style="stop-color:#D66727"/>
		</linearGradient>
		<path id="XMLID_265_" fill="url(#XMLID_166_)" d="M198.9,400.5c-1.2,1.1-1.2-1.8-9.3-3.4c-1.9-0.4-3.8-0.5-5.9-0.6
			c-6.6-0.1-13.7,1.4-19.6,3.5c-8.2,3-10.8,5.9-10.8,5.9s-5.1-2.3-4.8-6.2c0.3-3.9,4.4-10.5,6.5-22.5c1.4-8.5,2.2-22.7,3.8-31.3
			c0.6-3.5,1.4-6.1,2.5-7c0.8-0.7,1.6-1.4,2.5-2c3.1-2.4,7-4.4,12.7-4.1c2.1,0.1,4.1,0.7,5.8,1.6c4.4,2.1,7.6,5.8,8.1,8.4
			c0.2,1.5,1.1,5.6,2.3,10.9c1.7,8,4.1,18.8,5.7,27.3c1.2,6.5,1.7,10.9,1.8,13.8C200.1,398.4,199.6,399.9,198.9,400.5z"/>
		<linearGradient id="XMLID_167_" gradientUnits="userSpaceOnUse" x1="187.8353" y1="326.5024" x2="156.8594" y2="410.3341">
			<stop  offset="0" style="stop-color:#FBB416"/>
			<stop  offset="1" style="stop-color:#D66727"/>
		</linearGradient>
		<path id="XMLID_263_" fill="url(#XMLID_167_)" d="M183.8,396.6c-5.9-0.1-12.2,1.1-17.7,2.9c-0.7,0.2-1.3,0.4-1.9,0.7
			c-8.2,3-10.8,5.9-10.8,5.9s-5.1-2.3-4.8-6.2c0.3-3.9,4.4-10.5,6.5-22.5c1.1-6.4,1.8-16,2.7-24.1c0.3-2.6,0.7-5.1,1-7.2
			c1.6-0.8,4.6-1.9,3.6,1.6c-1.2,4.1,3.4,1,3.7,4.2c0.3,3.2-5.3,17.8-3.3,20.6c2,2.8,7,0.5,4,9.2c-3,8.8-2.5,10,6,9.6
			C180.8,390.9,183.9,392.8,183.8,396.6z"/>
		<linearGradient id="XMLID_168_" gradientUnits="userSpaceOnUse" x1="161.138" y1="379.3335" x2="145.58" y2="379.3335">
			<stop  offset="0" style="stop-color:#DF7627"/>
			<stop  offset="1" style="stop-color:#F6BD4C"/>
		</linearGradient>
		<path id="XMLID_254_" fill="url(#XMLID_168_)" d="M166.1,399.4c-0.7,0.2-1.3,0.4-1.9,0.7c-8.2,3-10.8,5.9-10.8,5.9
			s-5.1-2.3-4.8-6.2c0.3-3.9,4.4-10.5,6.5-22.5c1.1-6.4,1.8-16,2.7-24.1c1.8-0.8,4-1.2,3.8,2.1c-0.2,5.5-3.7,15-2.3,18.3
			c1.4,3.3,5.3,3.3,4.2,7.1s-6.8,9-0.4,14.9C164.6,396.9,165.6,398.2,166.1,399.4z"/>
		<linearGradient id="XMLID_169_" gradientUnits="userSpaceOnUse" x1="173.1363" y1="338.8453" x2="172.7336" y2="328.1729">
			<stop  offset="0" style="stop-color:#FBB416"/>
			<stop  offset="1" style="stop-color:#D66727"/>
		</linearGradient>
		<path id="XMLID_258_" fill="url(#XMLID_169_)" d="M182.3,334.4c0,1.9-2.9,2.4-11.9,2.1c-2.4-0.1-3.4-0.7-6.6,0.4
			c3.1-2.4,7-4.4,12.7-4.1C178.5,333,180.5,333.6,182.3,334.4z"/>
		<linearGradient id="XMLID_170_" gradientUnits="userSpaceOnUse" x1="177.5811" y1="369.1196" x2="202.1745" y2="369.1196">
			<stop  offset="0" style="stop-color:#F09B21"/>
			<stop  offset="1" style="stop-color:#F8CE63"/>
		</linearGradient>
		<path id="XMLID_261_" fill="url(#XMLID_170_)" d="M200,394.9c-1.1-0.2-3.1-4.9-12.3-5.2c-29.7-1.1-17.9-7.7-13.9-9.8
			c4-2.1,11.5-5.8,9.4-11c-1.8-4.6,6.1-2.5,5.3-10.4c-0.6-6.1,1.2-15.2,2.3-15.1c1.7,8,5.9,29.2,7.5,37.7
			C199.5,387.5,200,391.9,200,394.9z"/>
	</g>
</g>
<g id="RIGHT_ARM_1">
	<g id="XMLID_272_">
		<linearGradient id="XMLID_171_" gradientUnits="userSpaceOnUse" x1="129.0829" y1="383.847" x2="153.8308" y2="390.5666">
			<stop  offset="0.129" style="stop-color:#FCCEA5"/>
			<stop  offset="1" style="stop-color:#F27E69"/>
		</linearGradient>
		<path id="XMLID_288_" fill="url(#XMLID_171_)" d="M155.3,360.1c0,0-4.8,5.5-11.6,18.6c-6.5,12.6-9.4,21.8-9.5,23.9
			c0,0.1,0,0.2,0,0.2c0.1,1.5,3.2,5.6,4.1,6.7c0.9,1.2,0.6,2,0.1,2.3c-0.6,0.3-1.8-1.1-2.9-2.1c-1.1-1-1.6-1-1.6-1s0,4.9,0.7,7.5
			c0.7,2.6,0.8,4,0.4,4.3c-0.4,0.3-1-0.3-1.5-1.5c-0.5-1.2-1.3-4.6-1.3-4.6s0.5,4.7,0.9,6.1c0.4,1.4,0.1,2.4-0.5,2.2
			c-0.6-0.2-1-1.3-1.6-3.7c-0.6-2.3-0.8-4.4-0.8-4.4s0.1,3.8,0.3,5.1c0.2,1.3,0.5,2.5,0.1,2.6c-0.4,0.2-0.8-0.7-1.1-2.2
			c-0.3-1.5-0.6-4.5-0.6-4.5s-0.1,3.7-0.4,4.2c-0.3,0.5-0.6-2.1-0.5-4.3c0.1-2.3,0.4-7.8,1.2-12.1c0.8-4.4,5.2-23.3,11.9-36
			c4.8-9,8.9-15,10.8-15.3c1-0.2,3,1.3,4,3.2C156.5,356.7,156.7,358.6,155.3,360.1z"/>
		<linearGradient id="XMLID_172_" gradientUnits="userSpaceOnUse" x1="133.9022" y1="374.3576" x2="147.9971" y2="380.0938">
			<stop  offset="0.129" style="stop-color:#FCCEA5"/>
			<stop  offset="1" style="stop-color:#F27E69"/>
		</linearGradient>
		<path id="XMLID_286_" fill="url(#XMLID_172_)" d="M155.3,360.1c0,0-4.8,5.5-11.6,18.6c-6.5,12.6-9.4,21.8-9.5,23.9
			c-0.5-1.5-0.8-3.9,0.2-6.7c1.6-4.7,6.2-16.9,8.6-21.7c2.3-4.8,2.3-6,4.2-8.9c2.5-3.7,6.5-8,8.5-10.1
			C156.5,356.7,156.7,358.6,155.3,360.1z"/>
	</g>
	<g id="XMLID_253_">
		<linearGradient id="XMLID_173_" gradientUnits="userSpaceOnUse" x1="154.7144" y1="346.7686" x2="162.3355" y2="363.7316">
			<stop  offset="0" style="stop-color:#FBB416"/>
			<stop  offset="1" style="stop-color:#D66727"/>
		</linearGradient>
		<path id="XMLID_268_" fill="url(#XMLID_173_)" d="M145.3,361.2c0.2,1,0.5,2.2,1,3.4c1.9,4.2,3.9,4.1,3.9,4.1L163,359
			c0,0,7-5.5,6.9-12.6c0-0.9-0.1-1.7-0.4-2.6c-2.2-8.3-8.5-4.1-8.5-4.1l-15.7,16.9C145.4,356.5,144.9,358.5,145.3,361.2z"/>
		<linearGradient id="XMLID_174_" gradientUnits="userSpaceOnUse" x1="158.0662" y1="344.0829" x2="156.7551" y2="371.8629">
			<stop  offset="0" style="stop-color:#EE9821"/>
			<stop  offset="1" style="stop-color:#D66727"/>
		</linearGradient>
		<path id="XMLID_266_" fill="url(#XMLID_174_)" d="M145.3,361.2c0.2,1,0.4,2.1,0.9,3.2c0,0.1,0.1,0.1,0.1,0.2
			c1.9,4.2,3.9,4.1,3.9,4.1L163,359c0,0,4.2-3.3,6-8.1c0.5-1.4,0.9-2.9,0.8-4.5c-3.6,3.6-11.6,10.4-16.6,12.9
			C149.4,361.2,146.7,361.4,145.3,361.2z"/>
		<linearGradient id="XMLID_175_" gradientUnits="userSpaceOnUse" x1="155.6035" y1="352.1619" x2="158.8813" y2="360.8483">
			<stop  offset="0" style="stop-color:#FBB416"/>
			<stop  offset="1" style="stop-color:#D66727"/>
		</linearGradient>
		<path id="XMLID_264_" fill="url(#XMLID_175_)" d="M146.3,364.3c0,0.1,0.1,0.1,0.1,0.2c1.9,4.2,3.9,4.1,3.9,4.1L163,359
			c0,0,4.2-3.3,6-8.1c-4,3.7-10.8,9.4-15.2,11.6C150.3,364.2,147.7,364.4,146.3,364.3z"/>
		<linearGradient id="XMLID_179_" gradientUnits="userSpaceOnUse" x1="152.3606" y1="344.525" x2="153.5587" y2="358.9016">
			<stop  offset="0" style="stop-color:#FBB416"/>
			<stop  offset="1" style="stop-color:#FCD475"/>
		</linearGradient>
		<path id="XMLID_262_" fill="url(#XMLID_179_)" d="M160.2,340.9l-13.5,14.6c0,0-1.3,1.1-1.3,1.9c-0.1,3,2,1.1,2,1.1L160.2,340.9z"
			/>
	</g>
</g>
<g id="HEAD">
	<g id="XMLID_1_">
		<g id="XMLID_277_">
			<linearGradient id="XMLID_180_" gradientUnits="userSpaceOnUse" x1="175.7814" y1="340.4026" x2="175.3512" y2="328.295">
				<stop  offset="0.129" style="stop-color:#FCCEA5"/>
				<stop  offset="1" style="stop-color:#F27E69"/>
			</linearGradient>
			<path id="XMLID_291_" fill="url(#XMLID_180_)" d="M178.1,327.7l-0.2,3.4l-0.2,3.4c0,0-0.3,0.6-1.7,0.8c-1.4,0.2-3.1-0.5-3.1-0.5
				l0.2-2.8l0.5-6L178.1,327.7z"/>
			<linearGradient id="XMLID_185_" gradientUnits="userSpaceOnUse" x1="175.5765" y1="331.1042" x2="175.5765" y2="328.5216">
				<stop  offset="0.129" style="stop-color:#F5987A"/>
				<stop  offset="1" style="stop-color:#F16863"/>
			</linearGradient>
			<path id="XMLID_289_" fill="url(#XMLID_185_)" d="M178.1,327.7l-0.2,3.4c-1.7,0.7-3.5,0.9-4.8,0.9l0.5-6L178.1,327.7z"/>
		</g>
		<g id="XMLID_278_">
			<linearGradient id="XMLID_200_" gradientUnits="userSpaceOnUse" x1="187.4036" y1="312.6417" x2="156.0589" y2="321.1232">
				<stop  offset="0.129" style="stop-color:#FCCEA5"/>
				<stop  offset="1" style="stop-color:#F27E69"/>
			</linearGradient>
			<path id="XMLID_307_" fill="url(#XMLID_200_)" d="M185.4,326.7c-0.3,0.2-0.5,0.4-0.8,0.6c-6.5,3.7-14.7-1.3-17.6-9
				c-2.9-7.7-0.5-13.3,2.8-14.8c0.6-0.3,1.2-0.5,1.8-0.7c7-2.3,11.1,2.3,13.3,6C187.3,312.5,190.8,322.5,185.4,326.7z"/>
			<linearGradient id="XMLID_202_" gradientUnits="userSpaceOnUse" x1="182.7742" y1="310.652" x2="165.1556" y2="325.4024">
				<stop  offset="0.129" style="stop-color:#FCCEA5"/>
				<stop  offset="1" style="stop-color:#F27E69"/>
			</linearGradient>
			<path id="XMLID_308_" fill="url(#XMLID_202_)" d="M185.4,326.7c-0.3,0.2-0.5,0.4-0.8,0.6c-1.2,0.7-2.5,1.1-3.7,1.2
				c-5.6,0.6-11.5-3.9-13.8-10.2c-2.3-6.1-1.3-10.8,0.8-13.3c0.6-0.7,1.2-1.2,2-1.5c0.6-0.3,1.2-0.5,1.8-0.7
				c-1.4,3.1-2.9,9.2,2.4,16.2C178.5,324.8,182.4,326.6,185.4,326.7z"/>
			<linearGradient id="XMLID_203_" gradientUnits="userSpaceOnUse" x1="180.2253" y1="310.9288" x2="167.2776" y2="323.7945">
				<stop  offset="0.129" style="stop-color:#FCCEA5"/>
				<stop  offset="1" style="stop-color:#F27E69"/>
			</linearGradient>
			<path id="XMLID_304_" fill="url(#XMLID_203_)" d="M180.9,328.5c-5.6,0.6-11.5-3.9-13.8-10.2c-2.3-6.1-1.3-10.8,0.8-13.3
				c-0.6,3.2-0.9,10.2,4.9,17.4C175.4,325.5,178.2,327.4,180.9,328.5z"/>
			<linearGradient id="XMLID_207_" gradientUnits="userSpaceOnUse" x1="184.094" y1="317.3238" x2="185.5998" y2="319.2137">
				<stop  offset="0.129" style="stop-color:#FCCEA5"/>
				<stop  offset="1" style="stop-color:#F27E69"/>
			</linearGradient>
			<path id="XMLID_517_" fill="url(#XMLID_207_)" d="M185.3,318.6c-0.6,0.4-1.2,0.5-2.1,0.1c0.6-0.2,1.1-0.5,1.6-0.9
				c0.4-0.3,0.8-0.7,0.9-1.1C186.1,317.5,185.8,318.2,185.3,318.6z"/>
		</g>
		<linearGradient id="XMLID_212_" gradientUnits="userSpaceOnUse" x1="184.9263" y1="313.4893" x2="182.7138" y2="307.5072">
			<stop  offset="0.129" style="stop-color:#FCCEA5"/>
			<stop  offset="1" style="stop-color:#F27E69"/>
		</linearGradient>
		<path id="XMLID_504_" fill="url(#XMLID_212_)" d="M185.5,310.1c0.6,1.4,0.6,2.8-0.4,3.1c-1,0.4-2.2-0.5-2.8-1.9
			c-0.6-1.4-0.2-2.9,0.8-3.3S184.9,308.6,185.5,310.1z"/>
		<linearGradient id="XMLID_217_" gradientUnits="userSpaceOnUse" x1="178.4315" y1="316.2557" x2="176.2189" y2="310.2735">
			<stop  offset="0.129" style="stop-color:#FCCEA5"/>
			<stop  offset="1" style="stop-color:#F27E69"/>
		</linearGradient>
		<path id="XMLID_297_" fill="url(#XMLID_217_)" d="M178.6,311.7c0.6,1.4,0.5,3-0.4,3.3c-1,0.4-2.2-0.5-2.8-1.9
			c-0.6-1.4-0.2-2.9,0.8-3.3C177.1,309.5,178.1,310.3,178.6,311.7z"/>
		<path id="XMLID_506_" fill="#F37E68" d="M177.1,318.2c-0.8,0.5-1.7,0.7-2,0.2c-0.3-0.4,0.2-1.2,1-1.7c0.8-0.5,1.7-0.5,1.9-0.1
			C178.3,317.1,177.9,317.7,177.1,318.2z"/>
		<path id="XMLID_507_" fill="#F37E68" d="M186.6,314.8c-0.5,0.2-1,0.2-1.2-0.2s0.1-0.8,0.6-1c0.5-0.2,1,0,1.1,0.3
			S187,314.6,186.6,314.8z"/>
		<linearGradient id="XMLID_218_" gradientUnits="userSpaceOnUse" x1="160.1741" y1="320.8062" x2="173.3047" y2="321.532">
			<stop  offset="0.129" style="stop-color:#FCCEA5"/>
			<stop  offset="1" style="stop-color:#F27E69"/>
		</linearGradient>
		<path id="XMLID_280_" fill="url(#XMLID_218_)" d="M168.3,318.2c0,0-4.1,0.7-3.1,4.2s6.4,1.3,6.4,1.3L168.3,318.2z"/>
		<linearGradient id="XMLID_219_" gradientUnits="userSpaceOnUse" x1="160.1076" y1="311.9032" x2="168.0974" y2="321.2451">
			<stop  offset="0.129" style="stop-color:#FCCEA5"/>
			<stop  offset="1" style="stop-color:#F27E69"/>
		</linearGradient>
		<path id="XMLID_513_" fill="url(#XMLID_219_)" d="M170.6,322.5c0,0-3.7,1.5-4.4-0.9c-0.6-2.4,2.2-2.9,2.2-2.9l0.2,0.4
			c-0.2,0.4-0.5,1-0.4,1.7c0.3,0.9,1,0.8,1.7,0.7L170.6,322.5z"/>
		<g id="XMLID_282_">
			<linearGradient id="XMLID_220_" gradientUnits="userSpaceOnUse" x1="169.9264" y1="302.4031" x2="169.1275" y2="319.2432">
				<stop  offset="0" style="stop-color:#5E5441"/>
				<stop  offset="0.9247" style="stop-color:#4F443B"/>
			</linearGradient>
			<path id="XMLID_302_" fill="url(#XMLID_220_)" d="M176.2,311.6c-4,5.6-8.6,8.5-11.6,9.7c-3,1.2-5.7-0.9-4.4-3.3
				c1.3-2.4,3.6-2.7,3.6-2.7s-3.6,0.3-3.2-3.2c0-0.2,0.1-0.5,0.1-0.7c0.5-3.5,1.9-8,8.3-10.4c6.8-2.5,9.8,0.8,9.8,0.8
				s0.1,0.2,0.1,0.5C179.2,303.6,179.5,307.1,176.2,311.6z"/>
			<linearGradient id="XMLID_221_" gradientUnits="userSpaceOnUse" x1="166.3514" y1="313.9051" x2="170.8994" y2="293.7461">
				<stop  offset="0" style="stop-color:#4F443A"/>
				<stop  offset="0.9247" style="stop-color:#87816C"/>
			</linearGradient>
			<path id="XMLID_256_" fill="url(#XMLID_221_)" d="M168.3,308.8c-3.3,1.8-7.4,2.1-5.5-0.3c1.9-2.4,3.8-4,5.9-4.5s2.3-0.5,2.3-0.5
				s-1.2-0.3-3.5,0.4c-2.3,0.7-4.4,2.8-4.4,2.8s3.9-5.1,7.3-5.7C178.2,299.7,171.6,307.1,168.3,308.8z"/>
			<linearGradient id="XMLID_222_" gradientUnits="userSpaceOnUse" x1="170.6241" y1="300.422" x2="169.8251" y2="308.3504">
				<stop  offset="0" style="stop-color:#5E5441"/>
				<stop  offset="0.9247" style="stop-color:#4F443B"/>
			</linearGradient>
			<path id="XMLID_300_" fill="url(#XMLID_222_)" d="M176.2,311.6c-4,5.6-8.6,8.5-11.6,9.7c-3,1.2-5.7-0.9-4.4-3.3
				c1.3-2.4,3.6-2.7,3.6-2.7s-3.6,0.3-3.2-3.2c0-0.2,0.1-0.5,0.1-0.7c0.4,0.5,1,0.9,1.8,1.2c2.6,0.8,4.6,0,4.6,0s-4.3,3.4-3.7,4.9
				s7.3-2.2,11.3-8.2c2.3-3.4,3.5-5.6,4.2-6.9C179.2,303.6,179.5,307.1,176.2,311.6z"/>
		</g>
		<linearGradient id="XMLID_226_" gradientUnits="userSpaceOnUse" x1="182.644" y1="303.0013" x2="181.8445" y2="319.8528">
			<stop  offset="0" style="stop-color:#5E5441"/>
			<stop  offset="0.9247" style="stop-color:#4F443B"/>
		</linearGradient>
		<path id="XMLID_522_" fill="url(#XMLID_226_)" d="M186.2,310.1c0,0-1.9-0.6-4.6-3.5c-2.5-2.7-3-5-3-5s0,0,0,0
			c0.3-0.1,3.5-1.1,6.1,1.2c1,0.9,1.5,2.2,1.7,3.4C186.7,308.1,186.2,310.1,186.2,310.1z"/>
		<linearGradient id="XMLID_229_" gradientUnits="userSpaceOnUse" x1="182.092" y1="301.1827" x2="183.1368" y2="307.6975">
			<stop  offset="0" style="stop-color:#5E5441"/>
			<stop  offset="0.9247" style="stop-color:#4F443B"/>
		</linearGradient>
		<path id="XMLID_520_" fill="url(#XMLID_229_)" d="M186.2,310.1c0,0-1.9-0.6-4.6-3.5c-2.5-2.7-3-5-3-5s0,0,0,0c1,1.3,3.3,4,4,4.1
			c0.9,0.2,0.3-1.7,0.3-1.7s0.5,0.8,2.1,1.6c0.9,0.5,1.2,0.6,1.3,0.6C186.7,308.1,186.2,310.1,186.2,310.1z"/>
		<path id="XMLID_290_" fill="#B75C40" d="M183.7,315c0,0,0.2,0.8,0.4,1.3s0.2,0.4,0.2,0.4s1.1-1,1.7-0.5s0.4,1.7-0.1,2.2
			c-0.5,0.6-1.5,0.5-1.5,0.5s0.9-0.4,1.2-1s0.2-1.4-0.1-1.4c-0.3,0-1.5,1-1.5,1S183.6,315.8,183.7,315z"/>
		<path id="XMLID_287_" fill="#B75C40" d="M180.3,319.6c0,0,1.5,1.7,3.3,1.9c1.8,0.2,2.5-0.2,2.5-0.2s-0.6,1-2.7,0.8
			C181.3,322.1,180.4,320.1,180.3,319.6z"/>
		
			<linearGradient id="XMLID_230_" gradientUnits="userSpaceOnUse" x1="180.6331" y1="317.8085" x2="178.2038" y2="323.1755" gradientTransform="matrix(0.9683 -0.2497 0.2497 0.9683 -70.8646 56.5595)">
			<stop  offset="0.129" style="stop-color:#FCCEA5"/>
			<stop  offset="1" style="stop-color:#F27E69"/>
		</linearGradient>
		<path id="XMLID_505_" fill="url(#XMLID_230_)" d="M181.2,322.1c0,0,0.9,0.4,1.9,0.5c0.9,0.1,1.5,0,1.5,0s-0.1,1-1.3,1.1
			C182.1,323.7,181.3,322.4,181.2,322.1z"/>
		
			<ellipse id="XMLID_292_" transform="matrix(0.9328 -0.3605 0.3605 0.9328 -99.9921 87.5796)" fill="#352B22" cx="184.8" cy="311.8" rx="0.9" ry="1.4"/>
		
			<ellipse id="XMLID_259_" transform="matrix(0.9328 -0.3605 0.3605 0.9328 -101.0723 85.2926)" fill="#352B22" cx="178.1" cy="313.6" rx="1" ry="1.5"/>
		<path id="XMLID_293_" fill="#352B22" d="M184.3,307.4c0,0-0.3-0.3-1.3,0c-0.9,0.2-1.5,1.2-1.5,1.2s-0.1-1,0.9-1.6
			C183.4,306.4,184.3,307.4,184.3,307.4z"/>
		<path id="XMLID_301_" fill="#352B22" d="M177.7,309.3c0,0-0.5-0.4-1.7,0c-1.2,0.3-2,1.5-2,1.5s-0.1-1.3,1.1-2.1
			C176.5,307.9,177.7,309.3,177.7,309.3z"/>
	</g>
</g>
</svg>
